0
SECTION
2
HEADER
9
$ACADVER
1
AC1009
9
$INSUNITS
70
4
0
ENDSEC
0
SECTION
2
TABLES
0
TABLE
2
LAYER
70
7
0
LAYER
2
0
70
0
62
7
6
CONTINUOUS
0
LAYER
2
PANEL
70
0
62
7
6
CONTINUOUS
0
LAYER
2
WIRING
70
0
62
7
6
CONTINUOUS
0
LAYER
2
TEXT
70
0
62
7
6
CONTINUOUS
0
LAYER
2
DIMENSIONS
70
0
62
7
6
CONTINUOUS
0
LAYER
2
SHEET
70
0
62
7
6
CONTINUOUS
0
LAYER
2
NOTES
70
0
62
7
6
CONTINUOUS
0
ENDTAB
0
ENDSEC
0
SECTION
2
ENTITIES
0
LWPOLYLINE
8
SHEET
90
4
70
1
10
0
20
0
10
420
20
0
10
420
20
297
10
0
20
297
0
LWPOLYLINE
8
SHEET
90
4
70
1
10
20
20
10
10
410
20
10
10
410
20
287
10
20
20
287
0
LWPOLYLINE
8
SHEET
90
4
70
1
10
230
20
10
10
410
20
10
10
410
20
70
10
230
20
70
0
LINE
8
SHEET
10
230
20
22
30
0
11
410
21
22
31
0
0
LINE
8
SHEET
10
230
20
34
30
0
11
410
21
34
31
0
0
LINE
8
SHEET
10
230
20
46
30
0
11
410
21
46
31
0
0
LINE
8
SHEET
10
230
20
58
30
0
11
410
21
58
31
0
0
LINE
8
SHEET
10
290
20
10
30
0
11
290
21
34
31
0
0
LINE
8
SHEET
10
340
20
10
30
0
11
340
21
34
31
0
0
LINE
8
SHEET
10
375
20
10
30
0
11
375
21
34
31
0
0
TEXT
8
SHEET
10
234
20
61
30
0
40
5
1

0
TEXT
8
SHEET
10
234
20
54.5
30
0
40
2
1
PROJECT
0
TEXT
8
SHEET
10
260
20
54
30
0
40
3.2
1
IntegraCAD Open
0
TEXT
8
SHEET
10
234
20
42.5
30
0
40
2
1
TITLE
0
TEXT
8
SHEET
10
260
20
42
30
0
40
3.6
1
Cover sheet
0
TEXT
8
SHEET
10
234
20
36.5
30
0
40
2
1
CLIENT
0
TEXT
8
SHEET
10
260
20
36
30
0
40
3.2
1

0
TEXT
8
SHEET
10
233
20
28
30
0
40
2
1
DRAWING No.
0
TEXT
8
SHEET
10
233
20
14
30
0
40
3.2
1
000
0
TEXT
8
SHEET
10
293
20
28
30
0
40
2
1
REV
0
TEXT
8
SHEET
10
293
20
14
30
0
40
3.2
1
0
0
TEXT
8
SHEET
10
343
20
28
30
0
40
2
1
SCALE
0
TEXT
8
SHEET
10
343
20
14
30
0
40
3.2
1
1:1
0
TEXT
8
SHEET
10
378
20
28
30
0
40
2
1
DATE
0
TEXT
8
SHEET
10
378
20
14
30
0
40
3.2
1
2026-10-06
0
TEXT
8
SHEET
10
350
20
36.5
30
0
40
2
1
DRAWN
0
TEXT
8
SHEET
10
370
20
36
30
0
40
3.2
1

0
TEXT
8
TEXT
10
35
20
242
30
0
40
9
1

0
TEXT
8
TEXT
10
35
20
226
30
0
40
7
1
CONTROL PANEL DRAWING SET
0
LINE
8
NOTES
10
35
20
218
30
0
11
390
21
218
31
0
0
TEXT
8
TEXT
10
35
20
206
30
0
40
3
1
PROJECT
0
TEXT
8
TEXT
10
80
20
206
30
0
40
3.5
1
IntegraCAD Open
0
TEXT
8
TEXT
10
35
20
198
30
0
40
3
1
PROJECT No.
0
TEXT
8
TEXT
10
80
20
198
30
0
40
3.5
1
-
0
TEXT
8
TEXT
10
35
20
190
30
0
40
3
1
CLIENT
0
TEXT
8
TEXT
10
80
20
190
30
0
40
3.5
1
-
0
TEXT
8
TEXT
10
35
20
182
30
0
40
3
1
PANEL / MACHINE
0
TEXT
8
TEXT
10
80
20
182
30
0
40
3.5
1
-
0
TEXT
8
TEXT
10
35
20
174
30
0
40
3
1
LOCATION
0
TEXT
8
TEXT
10
80
20
174
30
0
40
3.5
1
-
0
TEXT
8
TEXT
10
35
20
166
30
0
40
3
1
PANEL BUILDER
0
TEXT
8
TEXT
10
80
20
166
30
0
40
3.5
1
-
0
TEXT
8
TEXT
10
35
20
158
30
0
40
3
1
DATE
0
TEXT
8
TEXT
10
80
20
158
30
0
40
3.5
1
2026-10-06
0
TEXT
8
TEXT
10
35
20
144
30
0
40
4.5
1
WIRE COLOURS
0
TEXT
8
TEXT
10
39
20
136
30
0
40
3
1
BLACK
0
TEXT
8
TEXT
10
81
20
136
30
0
40
3
1
Three phase power, 400 V AC
0
TEXT
8
TEXT
10
39
20
130
30
0
40
3
1
RED
0
TEXT
8
TEXT
10
81
20
130
30
0
40
3
1
Control, 230 V AC
0
TEXT
8
TEXT
10
39
20
124
30
0
40
3
1
ORANGE
0
TEXT
8
TEXT
10
81
20
124
30
0
40
3
1
Foreign voltage. Live with the isolator open.
0
TEXT
8
TEXT
10
39
20
118
30
0
40
3
1
BLUE (dark)
0
TEXT
8
TEXT
10
81
20
118
30
0
40
3
1
24 V DC positive
0
TEXT
8
TEXT
10
39
20
112
30
0
40
3
1
BLUE/WHITE
0
TEXT
8
TEXT
10
81
20
112
30
0
40
3
1
24 V DC common, 0 V
0
TEXT
8
TEXT
10
39
20
106
30
0
40
3
1
GREEN/YELLOW
0
TEXT
8
TEXT
10
81
20
106
30
0
40
3
1
Protective earth
0
TEXT
8
TEXT
10
35
20
94
30
0
40
4.5
1
WIRE NUMBERING
0
TEXT
8
TEXT
10
39
20
86
30
0
40
3
1
Every conductor carries the number of the sheet and column it originates on.
0
TEXT
8
TEXT
10
39
20
80
30
0
40
3
1
Example: 052.4 is sheet 052, column 4. Both ends agree.
0
TEXT
8
TEXT
10
39
20
74
30
0
40
3
1
Cross references are shown as /sheet.column at the break.
0
ENDSEC
0
EOF
