0
SECTION
2
HEADER
9
$ACADVER
1
AC1009
9
$INSUNITS
70
4
0
ENDSEC
0
SECTION
2
TABLES
0
TABLE
2
LAYER
70
7
0
LAYER
2
0
70
0
62
7
6
CONTINUOUS
0
LAYER
2
PANEL
70
0
62
7
6
CONTINUOUS
0
LAYER
2
WIRING
70
0
62
7
6
CONTINUOUS
0
LAYER
2
TEXT
70
0
62
7
6
CONTINUOUS
0
LAYER
2
DIMENSIONS
70
0
62
7
6
CONTINUOUS
0
LAYER
2
SHEET
70
0
62
7
6
CONTINUOUS
0
LAYER
2
NOTES
70
0
62
7
6
CONTINUOUS
0
ENDTAB
0
ENDSEC
0
SECTION
2
ENTITIES
0
LWPOLYLINE
8
SHEET
90
4
70
1
10
0
20
0
10
420
20
0
10
420
20
297
10
0
20
297
0
LWPOLYLINE
8
SHEET
90
4
70
1
10
20
20
10
10
410
20
10
10
410
20
287
10
20
20
287
0
LWPOLYLINE
8
SHEET
90
4
70
1
10
230
20
10
10
410
20
10
10
410
20
70
10
230
20
70
0
LINE
8
SHEET
10
230
20
22
30
0
11
410
21
22
31
0
0
LINE
8
SHEET
10
230
20
34
30
0
11
410
21
34
31
0
0
LINE
8
SHEET
10
230
20
46
30
0
11
410
21
46
31
0
0
LINE
8
SHEET
10
230
20
58
30
0
11
410
21
58
31
0
0
LINE
8
SHEET
10
290
20
10
30
0
11
290
21
34
31
0
0
LINE
8
SHEET
10
340
20
10
30
0
11
340
21
34
31
0
0
LINE
8
SHEET
10
375
20
10
30
0
11
375
21
34
31
0
0
TEXT
8
SHEET
10
234
20
61
30
0
40
5
1

0
TEXT
8
SHEET
10
234
20
54.5
30
0
40
2
1
PROJECT
0
TEXT
8
SHEET
10
260
20
54
30
0
40
3.2
1
IntegraCAD Open
0
TEXT
8
SHEET
10
234
20
42.5
30
0
40
2
1
TITLE
0
TEXT
8
SHEET
10
260
20
42
30
0
40
3.6
1
Symbols and legend
0
TEXT
8
SHEET
10
234
20
36.5
30
0
40
2
1
CLIENT
0
TEXT
8
SHEET
10
260
20
36
30
0
40
3.2
1

0
TEXT
8
SHEET
10
233
20
28
30
0
40
2
1
DRAWING No.
0
TEXT
8
SHEET
10
233
20
14
30
0
40
3.2
1
003
0
TEXT
8
SHEET
10
293
20
28
30
0
40
2
1
REV
0
TEXT
8
SHEET
10
293
20
14
30
0
40
3.2
1
0
0
TEXT
8
SHEET
10
343
20
28
30
0
40
2
1
SCALE
0
TEXT
8
SHEET
10
343
20
14
30
0
40
3.2
1
1:1
0
TEXT
8
SHEET
10
378
20
28
30
0
40
2
1
DATE
0
TEXT
8
SHEET
10
378
20
14
30
0
40
3.2
1
2026-10-06
0
TEXT
8
SHEET
10
350
20
36.5
30
0
40
2
1
DRAWN
0
TEXT
8
SHEET
10
370
20
36
30
0
40
3.2
1

0
TEXT
8
TEXT
10
35
20
247
30
0
40
7
1
SYMBOLS AND LEGEND
0
LINE
8
WIRING
10
40
20
222
30
0
11
45
21
222
31
0
0
LINE
8
WIRING
10
45
20
218
30
0
11
45
21
226
31
0
0
LINE
8
WIRING
10
55
20
218
30
0
11
55
21
226
31
0
0
LINE
8
WIRING
10
55
20
222
30
0
11
60
21
222
31
0
0
TEXT
8
TEXT
10
40
20
208
30
0
40
3
1
Contact, NO
0
LINE
8
WIRING
10
40
20
188
30
0
11
45
21
188
31
0
0
LINE
8
WIRING
10
45
20
184
30
0
11
45
21
192
31
0
0
LINE
8
WIRING
10
55
20
184
30
0
11
55
21
192
31
0
0
LINE
8
WIRING
10
55
20
188
30
0
11
60
21
188
31
0
0
LINE
8
WIRING
10
43
20
193
30
0
11
57
21
183
31
0
0
TEXT
8
TEXT
10
40
20
174
30
0
40
3
1
Contact, NC
0
LINE
8
WIRING
10
40
20
154
30
0
11
45
21
154
31
0
0
ARC
8
WIRING
10
50
20
154
30
0
40
5
50
90
51
270
0
ARC
8
WIRING
10
50
20
154
30
0
40
5
50
270
51
90
0
LINE
8
WIRING
10
55
20
154
30
0
11
60
21
154
31
0
0
TEXT
8
TEXT
10
40
20
140
30
0
40
3
1
Coil
0
LINE
8
WIRING
10
40
20
120
30
0
11
45
21
120
31
0
0
CIRCLE
8
WIRING
10
51
20
120
30
0
40
6
0
LINE
8
WIRING
10
46.8
20
115.8
30
0
11
55.2
21
124.2
31
0
0
LINE
8
WIRING
10
46.8
20
124.2
30
0
11
55.2
21
115.8
31
0
0
LINE
8
WIRING
10
57
20
120
30
0
11
62
21
120
31
0
0
TEXT
8
TEXT
10
40
20
106
30
0
40
3
1
Indicator lamp
0
LINE
8
WIRING
10
135
20
222
30
0
11
140
21
222
31
0
0
CIRCLE
8
WIRING
10
148
20
222
30
0
40
8
0
TEXT
8
TEXT
10
145.5
20
220.5
30
0
40
5
1
M
0
TEXT
8
TEXT
10
135
20
208
30
0
40
3
1
Motor
0
LINE
8
WIRING
10
135
20
188
30
0
11
140
21
188
31
0
0
LWPOLYLINE
8
WIRING
90
4
70
1
10
140
20
185
10
150
20
185
10
150
20
191
10
140
20
191
0
LINE
8
WIRING
10
140
20
188
30
0
11
150
21
188
31
0
0
LINE
8
WIRING
10
150
20
188
30
0
11
155
21
188
31
0
0
TEXT
8
TEXT
10
135
20
174
30
0
40
3
1
Fuse
0
LINE
8
WIRING
10
135
20
154
30
0
11
140
21
154
31
0
0
CIRCLE
8
WIRING
10
140
20
154
30
0
40
1
0
LINE
8
WIRING
10
140
20
154
30
0
11
150
21
161
31
0
0
CIRCLE
8
WIRING
10
150
20
154
30
0
40
1
0
LINE
8
WIRING
10
150
20
154
30
0
11
155
21
154
31
0
0
TEXT
8
TEXT
10
135
20
140
30
0
40
3
1
Isolator
0
LINE
8
WIRING
10
135
20
120
30
0
11
140
21
120
31
0
0
LINE
8
WIRING
10
140
20
116
30
0
11
140
21
124
31
0
0
LINE
8
WIRING
10
150
20
116
30
0
11
150
21
124
31
0
0
LINE
8
WIRING
10
150
20
120
30
0
11
155
21
120
31
0
0
LINE
8
WIRING
10
138
20
125
30
0
11
152
21
115
31
0
0
LINE
8
WIRING
10
145
20
125
30
0
11
145
21
132
31
0
0
ARC
8
WIRING
10
145
20
132
30
0
40
4
50
0
51
180
0
TEXT
8
TEXT
10
135
20
106
30
0
40
3
1
E-stop
0
TEXT
8
TEXT
10
290
20
234
30
0
40
4.5
1
DEVICE TAGS
0
TEXT
8
TEXT
10
290
20
222
30
0
40
3.5
1
Q
0
TEXT
8
TEXT
10
304
20
222
30
0
40
3
1
Circuit breaker, isolator
0
TEXT
8
TEXT
10
290
20
215
30
0
40
3.5
1
F
0
TEXT
8
TEXT
10
304
20
215
30
0
40
3
1
Fuse, protective device
0
TEXT
8
TEXT
10
290
20
208
30
0
40
3.5
1
K
0
TEXT
8
TEXT
10
304
20
208
30
0
40
3
1
Relay
0
TEXT
8
TEXT
10
290
20
201
30
0
40
3.5
1
KM
0
TEXT
8
TEXT
10
304
20
201
30
0
40
3
1
Contactor
0
TEXT
8
TEXT
10
290
20
194
30
0
40
3.5
1
M
0
TEXT
8
TEXT
10
304
20
194
30
0
40
3
1
Motor
0
TEXT
8
TEXT
10
290
20
187
30
0
40
3.5
1
S
0
TEXT
8
TEXT
10
304
20
187
30
0
40
3
1
Switch, pushbutton
0
TEXT
8
TEXT
10
290
20
180
30
0
40
3.5
1
B
0
TEXT
8
TEXT
10
304
20
180
30
0
40
3
1
Sensor, transducer
0
TEXT
8
TEXT
10
290
20
173
30
0
40
3.5
1
H
0
TEXT
8
TEXT
10
304
20
173
30
0
40
3
1
Indicator, beacon
0
TEXT
8
TEXT
10
290
20
166
30
0
40
3.5
1
T
0
TEXT
8
TEXT
10
304
20
166
30
0
40
3
1
Transformer, power supply
0
TEXT
8
TEXT
10
290
20
159
30
0
40
3.5
1
A
0
TEXT
8
TEXT
10
304
20
159
30
0
40
3
1
Assembly: PLC, drive, safety relay
0
TEXT
8
TEXT
10
290
20
152
30
0
40
3.5
1
X
0
TEXT
8
TEXT
10
304
20
152
30
0
40
3
1
Terminal
0
TEXT
8
TEXT
10
290
20
145
30
0
40
3.5
1
W
0
TEXT
8
TEXT
10
304
20
145
30
0
40
3
1
Cable
0
ENDSEC
0
EOF
