0
SECTION
2
HEADER
9
$ACADVER
1
AC1009
9
$INSUNITS
70
4
0
ENDSEC
0
SECTION
2
TABLES
0
TABLE
2
LAYER
70
7
0
LAYER
2
0
70
0
62
7
6
CONTINUOUS
0
LAYER
2
PANEL
70
0
62
7
6
CONTINUOUS
0
LAYER
2
WIRING
70
0
62
7
6
CONTINUOUS
0
LAYER
2
TEXT
70
0
62
7
6
CONTINUOUS
0
LAYER
2
DIMENSIONS
70
0
62
7
6
CONTINUOUS
0
LAYER
2
SHEET
70
0
62
7
6
CONTINUOUS
0
LAYER
2
NOTES
70
0
62
7
6
CONTINUOUS
0
ENDTAB
0
ENDSEC
0
SECTION
2
ENTITIES
0
LWPOLYLINE
8
SHEET
90
4
70
1
10
0
20
0
10
420
20
0
10
420
20
297
10
0
20
297
0
LWPOLYLINE
8
SHEET
90
4
70
1
10
20
20
10
10
410
20
10
10
410
20
287
10
20
20
287
0
LWPOLYLINE
8
SHEET
90
4
70
1
10
230
20
10
10
410
20
10
10
410
20
70
10
230
20
70
0
LINE
8
SHEET
10
230
20
22
30
0
11
410
21
22
31
0
0
LINE
8
SHEET
10
230
20
34
30
0
11
410
21
34
31
0
0
LINE
8
SHEET
10
230
20
46
30
0
11
410
21
46
31
0
0
LINE
8
SHEET
10
230
20
58
30
0
11
410
21
58
31
0
0
LINE
8
SHEET
10
290
20
10
30
0
11
290
21
34
31
0
0
LINE
8
SHEET
10
340
20
10
30
0
11
340
21
34
31
0
0
LINE
8
SHEET
10
375
20
10
30
0
11
375
21
34
31
0
0
TEXT
8
SHEET
10
234
20
61
30
0
40
5
1

0
TEXT
8
SHEET
10
234
20
54.5
30
0
40
2
1
PROJECT
0
TEXT
8
SHEET
10
260
20
54
30
0
40
3.2
1
IntegraCAD Open
0
TEXT
8
SHEET
10
234
20
42.5
30
0
40
2
1
TITLE
0
TEXT
8
SHEET
10
260
20
42
30
0
40
3.6
1
Power distribution
0
TEXT
8
SHEET
10
234
20
36.5
30
0
40
2
1
CLIENT
0
TEXT
8
SHEET
10
260
20
36
30
0
40
3.2
1

0
TEXT
8
SHEET
10
233
20
28
30
0
40
2
1
DRAWING No.
0
TEXT
8
SHEET
10
233
20
14
30
0
40
3.2
1
010
0
TEXT
8
SHEET
10
293
20
28
30
0
40
2
1
REV
0
TEXT
8
SHEET
10
293
20
14
30
0
40
3.2
1
0
0
TEXT
8
SHEET
10
343
20
28
30
0
40
2
1
SCALE
0
TEXT
8
SHEET
10
343
20
14
30
0
40
3.2
1
1:1
0
TEXT
8
SHEET
10
378
20
28
30
0
40
2
1
DATE
0
TEXT
8
SHEET
10
378
20
14
30
0
40
3.2
1
2026-10-06
0
TEXT
8
SHEET
10
350
20
36.5
30
0
40
2
1
DRAWN
0
TEXT
8
SHEET
10
370
20
36
30
0
40
3.2
1
LIerd Grant
0
LINE
8
WIRING
10
30
20
257
30
0
11
400
21
257
31
0
0
LINE
8
WIRING
10
30
20
90
30
0
11
400
21
90
31
0
0
TEXT
8
TEXT
10
30
20
261
30
0
40
3.5
1
L1 L2 L3  400V 3ph 50Hz
0
TEXT
8
TEXT
10
30
20
83
30
0
40
3.5
1
PE
0
TEXT
8
TEXT
10
51.125
20
267
30
0
40
3
1
1
0
LINE
8
NOTES
10
53.125
20
257
30
0
11
53.125
21
263
31
0
0
TEXT
8
TEXT
10
97.375
20
267
30
0
40
3
1
2
0
LINE
8
NOTES
10
99.375
20
257
30
0
11
99.375
21
263
31
0
0
TEXT
8
TEXT
10
143.625
20
267
30
0
40
3
1
3
0
LINE
8
NOTES
10
145.625
20
257
30
0
11
145.625
21
263
31
0
0
TEXT
8
TEXT
10
189.875
20
267
30
0
40
3
1
4
0
LINE
8
NOTES
10
191.875
20
257
30
0
11
191.875
21
263
31
0
0
TEXT
8
TEXT
10
236.125
20
267
30
0
40
3
1
5
0
LINE
8
NOTES
10
238.125
20
257
30
0
11
238.125
21
263
31
0
0
TEXT
8
TEXT
10
282.375
20
267
30
0
40
3
1
6
0
LINE
8
NOTES
10
284.375
20
257
30
0
11
284.375
21
263
31
0
0
TEXT
8
TEXT
10
328.625
20
267
30
0
40
3
1
7
0
LINE
8
NOTES
10
330.625
20
257
30
0
11
330.625
21
263
31
0
0
TEXT
8
TEXT
10
374.875
20
267
30
0
40
3
1
8
0
LINE
8
NOTES
10
376.875
20
257
30
0
11
376.875
21
263
31
0
0
LINE
8
WIRING
10
55
20
257
30
0
11
55
21
235
31
0
0
LINE
8
WIRING
10
63
20
257
30
0
11
63
21
235
31
0
0
LINE
8
WIRING
10
71
20
257
30
0
11
71
21
235
31
0
0
LWPOLYLINE
8
PANEL
90
4
70
1
10
49
20
223
10
77
20
223
10
77
20
235
10
49
20
235
0
TEXT
8
TEXT
10
51
20
227
30
0
40
3
1
-Q1  MAIN ISOLATOR  63A
0
LINE
8
WIRING
10
55
20
223
30
0
11
55
21
150
31
0
0
LINE
8
WIRING
10
63
20
223
30
0
11
63
21
150
31
0
0
LINE
8
WIRING
10
71
20
223
30
0
11
71
21
150
31
0
0
LINE
8
WIRING
10
130
20
197
30
0
11
135
21
197
31
0
0
LWPOLYLINE
8
WIRING
90
4
70
1
10
135
20
194
10
145
20
194
10
145
20
200
10
135
20
200
0
LINE
8
WIRING
10
135
20
197
30
0
11
145
21
197
31
0
0
LINE
8
WIRING
10
145
20
197
30
0
11
150
21
197
31
0
0
TEXT
8
TEXT
10
130
20
207
30
0
40
3
1
-Q2  C16
0
LINE
8
WIRING
10
130
20
167
30
0
11
135
21
167
31
0
0
LINE
8
WIRING
10
135
20
163
30
0
11
135
21
171
31
0
0
LINE
8
WIRING
10
145
20
163
30
0
11
145
21
171
31
0
0
LINE
8
WIRING
10
145
20
167
30
0
11
150
21
167
31
0
0
TEXT
8
TEXT
10
130
20
177
30
0
40
3
1
-KM1
0
LINE
8
WIRING
10
130
20
132
30
0
11
135
21
132
31
0
0
CIRCLE
8
WIRING
10
143
20
132
30
0
40
8
0
TEXT
8
TEXT
10
140.5
20
130.5
30
0
40
5
1
M
0
TEXT
8
TEXT
10
130
20
145
30
0
40
3
1
-M1  4.0 kW
0
LINE
8
WIRING
10
155
20
197
30
0
11
155
21
167
31
0
0
LINE
8
WIRING
10
155
20
167
30
0
11
155
21
132
31
0
0
LWPOLYLINE
8
PANEL
90
4
70
1
10
240
20
187
10
280
20
187
10
280
20
217
10
240
20
217
0
TEXT
8
TEXT
10
242
20
201
30
0
40
3
1
-T1  400/230V  500VA
0
LWPOLYLINE
8
PANEL
90
4
70
1
10
240
20
137
10
280
20
137
10
280
20
167
10
240
20
167
0
TEXT
8
TEXT
10
242
20
149
30
0
40
3
1
-T2  230VAC/24VDC  10A
0
LINE
8
WIRING
10
260
20
187
30
0
11
260
21
167
31
0
0
TEXT
8
TEXT
10
286
20
152
30
0
40
3
1
24V DC  ->  /030.1
0
TEXT
8
NOTES
10
35
20
70
30
0
40
3
1
Prospective fault level and cable sizes to be confirmed.
0
ENDSEC
0
EOF
