0
SECTION
2
HEADER
9
$ACADVER
1
AC1009
9
$INSUNITS
70
4
0
ENDSEC
0
SECTION
2
TABLES
0
TABLE
2
LAYER
70
7
0
LAYER
2
0
70
0
62
7
6
CONTINUOUS
0
LAYER
2
PANEL
70
0
62
7
6
CONTINUOUS
0
LAYER
2
WIRING
70
0
62
7
6
CONTINUOUS
0
LAYER
2
TEXT
70
0
62
7
6
CONTINUOUS
0
LAYER
2
DIMENSIONS
70
0
62
7
6
CONTINUOUS
0
LAYER
2
SHEET
70
0
62
7
6
CONTINUOUS
0
LAYER
2
NOTES
70
0
62
7
6
CONTINUOUS
0
ENDTAB
0
ENDSEC
0
SECTION
2
ENTITIES
0
LWPOLYLINE
8
SHEET
90
4
70
1
10
0
20
0
10
420
20
0
10
420
20
297
10
0
20
297
0
LWPOLYLINE
8
SHEET
90
4
70
1
10
20
20
10
10
410
20
10
10
410
20
287
10
20
20
287
0
LWPOLYLINE
8
SHEET
90
4
70
1
10
230
20
10
10
410
20
10
10
410
20
70
10
230
20
70
0
LINE
8
SHEET
10
230
20
22
30
0
11
410
21
22
31
0
0
LINE
8
SHEET
10
230
20
34
30
0
11
410
21
34
31
0
0
LINE
8
SHEET
10
230
20
46
30
0
11
410
21
46
31
0
0
LINE
8
SHEET
10
230
20
58
30
0
11
410
21
58
31
0
0
LINE
8
SHEET
10
290
20
10
30
0
11
290
21
34
31
0
0
LINE
8
SHEET
10
340
20
10
30
0
11
340
21
34
31
0
0
LINE
8
SHEET
10
375
20
10
30
0
11
375
21
34
31
0
0
TEXT
8
SHEET
10
234
20
61
30
0
40
5
1

0
TEXT
8
SHEET
10
234
20
54.5
30
0
40
2
1
PROJECT
0
TEXT
8
SHEET
10
260
20
54
30
0
40
3.2
1
IntegraCAD Open
0
TEXT
8
SHEET
10
234
20
42.5
30
0
40
2
1
TITLE
0
TEXT
8
SHEET
10
260
20
42
30
0
40
3.6
1
Control supply, 24 V DC
0
TEXT
8
SHEET
10
234
20
36.5
30
0
40
2
1
CLIENT
0
TEXT
8
SHEET
10
260
20
36
30
0
40
3.2
1

0
TEXT
8
SHEET
10
233
20
28
30
0
40
2
1
DRAWING No.
0
TEXT
8
SHEET
10
233
20
14
30
0
40
3.2
1
030
0
TEXT
8
SHEET
10
293
20
28
30
0
40
2
1
REV
0
TEXT
8
SHEET
10
293
20
14
30
0
40
3.2
1
0
0
TEXT
8
SHEET
10
343
20
28
30
0
40
2
1
SCALE
0
TEXT
8
SHEET
10
343
20
14
30
0
40
3.2
1
1:1
0
TEXT
8
SHEET
10
378
20
28
30
0
40
2
1
DATE
0
TEXT
8
SHEET
10
378
20
14
30
0
40
3.2
1
2026-10-06
0
TEXT
8
SHEET
10
350
20
36.5
30
0
40
2
1
DRAWN
0
TEXT
8
SHEET
10
370
20
36
30
0
40
3.2
1
LIerd Grant
0
LINE
8
WIRING
10
30
20
257
30
0
11
400
21
257
31
0
0
LINE
8
WIRING
10
30
20
90
30
0
11
400
21
90
31
0
0
TEXT
8
TEXT
10
30
20
261
30
0
40
3.5
1
+24V DC   /010.6
0
TEXT
8
TEXT
10
30
20
83
30
0
40
3.5
1
0V
0
TEXT
8
TEXT
10
51.125
20
267
30
0
40
3
1
1
0
LINE
8
NOTES
10
53.125
20
257
30
0
11
53.125
21
263
31
0
0
TEXT
8
TEXT
10
97.375
20
267
30
0
40
3
1
2
0
LINE
8
NOTES
10
99.375
20
257
30
0
11
99.375
21
263
31
0
0
TEXT
8
TEXT
10
143.625
20
267
30
0
40
3
1
3
0
LINE
8
NOTES
10
145.625
20
257
30
0
11
145.625
21
263
31
0
0
TEXT
8
TEXT
10
189.875
20
267
30
0
40
3
1
4
0
LINE
8
NOTES
10
191.875
20
257
30
0
11
191.875
21
263
31
0
0
TEXT
8
TEXT
10
236.125
20
267
30
0
40
3
1
5
0
LINE
8
NOTES
10
238.125
20
257
30
0
11
238.125
21
263
31
0
0
TEXT
8
TEXT
10
282.375
20
267
30
0
40
3
1
6
0
LINE
8
NOTES
10
284.375
20
257
30
0
11
284.375
21
263
31
0
0
TEXT
8
TEXT
10
328.625
20
267
30
0
40
3
1
7
0
LINE
8
NOTES
10
330.625
20
257
30
0
11
330.625
21
263
31
0
0
TEXT
8
TEXT
10
374.875
20
267
30
0
40
3
1
8
0
LINE
8
NOTES
10
376.875
20
257
30
0
11
376.875
21
263
31
0
0
LINE
8
WIRING
10
70
20
232
30
0
11
75
21
232
31
0
0
LWPOLYLINE
8
WIRING
90
4
70
1
10
75
20
229
10
85
20
229
10
85
20
235
10
75
20
235
0
LINE
8
WIRING
10
75
20
232
30
0
11
85
21
232
31
0
0
LINE
8
WIRING
10
85
20
232
30
0
11
90
21
232
31
0
0
LINE
8
WIRING
10
80
20
257
30
0
11
80
21
232
31
0
0
TEXT
8
TEXT
10
70
20
242
30
0
40
3
1
-F1  2A
0
LINE
8
WIRING
10
80
20
232
30
0
11
80
21
90
31
0
0
TEXT
8
TEXT
10
68
20
96
30
0
40
2.8
1
PLC and I/O
0
LINE
8
WIRING
10
130
20
232
30
0
11
135
21
232
31
0
0
LWPOLYLINE
8
WIRING
90
4
70
1
10
135
20
229
10
145
20
229
10
145
20
235
10
135
20
235
0
LINE
8
WIRING
10
135
20
232
30
0
11
145
21
232
31
0
0
LINE
8
WIRING
10
145
20
232
30
0
11
150
21
232
31
0
0
LINE
8
WIRING
10
140
20
257
30
0
11
140
21
232
31
0
0
TEXT
8
TEXT
10
130
20
242
30
0
40
3
1
-F2  2A
0
LINE
8
WIRING
10
140
20
232
30
0
11
140
21
90
31
0
0
TEXT
8
TEXT
10
128
20
96
30
0
40
2.8
1
Field sensors
0
LINE
8
WIRING
10
190
20
232
30
0
11
195
21
232
31
0
0
LWPOLYLINE
8
WIRING
90
4
70
1
10
195
20
229
10
205
20
229
10
205
20
235
10
195
20
235
0
LINE
8
WIRING
10
195
20
232
30
0
11
205
21
232
31
0
0
LINE
8
WIRING
10
205
20
232
30
0
11
210
21
232
31
0
0
LINE
8
WIRING
10
200
20
257
30
0
11
200
21
232
31
0
0
TEXT
8
TEXT
10
190
20
242
30
0
40
3
1
-F3  4A
0
LINE
8
WIRING
10
200
20
232
30
0
11
200
21
90
31
0
0
TEXT
8
TEXT
10
188
20
96
30
0
40
2.8
1
Field outputs, valves
0
LINE
8
WIRING
10
250
20
232
30
0
11
255
21
232
31
0
0
LWPOLYLINE
8
WIRING
90
4
70
1
10
255
20
229
10
265
20
229
10
265
20
235
10
255
20
235
0
LINE
8
WIRING
10
255
20
232
30
0
11
265
21
232
31
0
0
LINE
8
WIRING
10
265
20
232
30
0
11
270
21
232
31
0
0
LINE
8
WIRING
10
260
20
257
30
0
11
260
21
232
31
0
0
TEXT
8
TEXT
10
250
20
242
30
0
40
3
1
-F4  2A
0
LINE
8
WIRING
10
260
20
232
30
0
11
260
21
90
31
0
0
TEXT
8
TEXT
10
248
20
96
30
0
40
2.8
1
Safety circuit  /070.1
0
LWPOLYLINE
8
PANEL
90
4
70
1
10
300
20
187
10
350
20
187
10
350
20
217
10
300
20
217
0
TEXT
8
TEXT
10
302
20
200
30
0
40
3
1
-G1  24V UPS  20 min
0
ENDSEC
0
EOF
