0
SECTION
2
HEADER
9
$ACADVER
1
AC1009
9
$INSUNITS
70
4
0
ENDSEC
0
SECTION
2
TABLES
0
TABLE
2
LAYER
70
7
0
LAYER
2
0
70
0
62
7
6
CONTINUOUS
0
LAYER
2
PANEL
70
0
62
7
6
CONTINUOUS
0
LAYER
2
WIRING
70
0
62
7
6
CONTINUOUS
0
LAYER
2
TEXT
70
0
62
7
6
CONTINUOUS
0
LAYER
2
DIMENSIONS
70
0
62
7
6
CONTINUOUS
0
LAYER
2
SHEET
70
0
62
7
6
CONTINUOUS
0
LAYER
2
NOTES
70
0
62
7
6
CONTINUOUS
0
ENDTAB
0
ENDSEC
0
SECTION
2
ENTITIES
0
LWPOLYLINE
8
SHEET
90
4
70
1
10
0
20
0
10
420
20
0
10
420
20
297
10
0
20
297
0
LWPOLYLINE
8
SHEET
90
4
70
1
10
20
20
10
10
410
20
10
10
410
20
287
10
20
20
287
0
LWPOLYLINE
8
SHEET
90
4
70
1
10
230
20
10
10
410
20
10
10
410
20
70
10
230
20
70
0
LINE
8
SHEET
10
230
20
22
30
0
11
410
21
22
31
0
0
LINE
8
SHEET
10
230
20
34
30
0
11
410
21
34
31
0
0
LINE
8
SHEET
10
230
20
46
30
0
11
410
21
46
31
0
0
LINE
8
SHEET
10
230
20
58
30
0
11
410
21
58
31
0
0
LINE
8
SHEET
10
290
20
10
30
0
11
290
21
34
31
0
0
LINE
8
SHEET
10
340
20
10
30
0
11
340
21
34
31
0
0
LINE
8
SHEET
10
375
20
10
30
0
11
375
21
34
31
0
0
TEXT
8
SHEET
10
234
20
61
30
0
40
5
1

0
TEXT
8
SHEET
10
234
20
54.5
30
0
40
2
1
PROJECT
0
TEXT
8
SHEET
10
260
20
54
30
0
40
3.2
1
IntegraCAD Open
0
TEXT
8
SHEET
10
234
20
42.5
30
0
40
2
1
TITLE
0
TEXT
8
SHEET
10
260
20
42
30
0
40
3.6
1
PLC digital inputs
0
TEXT
8
SHEET
10
234
20
36.5
30
0
40
2
1
CLIENT
0
TEXT
8
SHEET
10
260
20
36
30
0
40
3.2
1

0
TEXT
8
SHEET
10
233
20
28
30
0
40
2
1
DRAWING No.
0
TEXT
8
SHEET
10
233
20
14
30
0
40
3.2
1
050
0
TEXT
8
SHEET
10
293
20
28
30
0
40
2
1
REV
0
TEXT
8
SHEET
10
293
20
14
30
0
40
3.2
1
0
0
TEXT
8
SHEET
10
343
20
28
30
0
40
2
1
SCALE
0
TEXT
8
SHEET
10
343
20
14
30
0
40
3.2
1
1:1
0
TEXT
8
SHEET
10
378
20
28
30
0
40
2
1
DATE
0
TEXT
8
SHEET
10
378
20
14
30
0
40
3.2
1
2026-10-06
0
TEXT
8
SHEET
10
350
20
36.5
30
0
40
2
1
DRAWN
0
TEXT
8
SHEET
10
370
20
36
30
0
40
3.2
1

0
LINE
8
WIRING
10
30
20
257
30
0
11
400
21
257
31
0
0
LINE
8
WIRING
10
30
20
90
30
0
11
400
21
90
31
0
0
TEXT
8
TEXT
10
30
20
261
30
0
40
3.5
1
+24V DC   /030.1
0
TEXT
8
TEXT
10
30
20
83
30
0
40
3.5
1
0V
0
TEXT
8
TEXT
10
51.125
20
267
30
0
40
3
1
1
0
LINE
8
NOTES
10
53.125
20
257
30
0
11
53.125
21
263
31
0
0
TEXT
8
TEXT
10
97.375
20
267
30
0
40
3
1
2
0
LINE
8
NOTES
10
99.375
20
257
30
0
11
99.375
21
263
31
0
0
TEXT
8
TEXT
10
143.625
20
267
30
0
40
3
1
3
0
LINE
8
NOTES
10
145.625
20
257
30
0
11
145.625
21
263
31
0
0
TEXT
8
TEXT
10
189.875
20
267
30
0
40
3
1
4
0
LINE
8
NOTES
10
191.875
20
257
30
0
11
191.875
21
263
31
0
0
TEXT
8
TEXT
10
236.125
20
267
30
0
40
3
1
5
0
LINE
8
NOTES
10
238.125
20
257
30
0
11
238.125
21
263
31
0
0
TEXT
8
TEXT
10
282.375
20
267
30
0
40
3
1
6
0
LINE
8
NOTES
10
284.375
20
257
30
0
11
284.375
21
263
31
0
0
TEXT
8
TEXT
10
328.625
20
267
30
0
40
3
1
7
0
LINE
8
NOTES
10
330.625
20
257
30
0
11
330.625
21
263
31
0
0
TEXT
8
TEXT
10
374.875
20
267
30
0
40
3
1
8
0
LINE
8
NOTES
10
376.875
20
257
30
0
11
376.875
21
263
31
0
0
LINE
8
WIRING
10
55
20
257
30
0
11
55
21
227
31
0
0
LINE
8
WIRING
10
45
20
217
30
0
11
50
21
217
31
0
0
LINE
8
WIRING
10
50
20
213
30
0
11
50
21
221
31
0
0
LINE
8
WIRING
10
60
20
213
30
0
11
60
21
221
31
0
0
LINE
8
WIRING
10
60
20
217
30
0
11
65
21
217
31
0
0
TEXT
8
TEXT
10
43
20
231
30
0
40
3
1
-S1
0
TEXT
8
TEXT
10
43
20
202
30
0
40
2.5
1
Start pushbutton
0
LINE
8
WIRING
10
55
20
212
30
0
11
55
21
182
31
0
0
CIRCLE
8
PANEL
10
55
20
182
30
0
40
1.6
0
TEXT
8
TEXT
10
52
20
186
30
0
40
2.5
1
X1:1
0
LINE
8
WIRING
10
55
20
180
30
0
11
55
21
157
31
0
0
TEXT
8
TEXT
10
47
20
145
30
0
40
3
1
I0.0
0
LINE
8
WIRING
10
97
20
257
30
0
11
97
21
227
31
0
0
LINE
8
WIRING
10
87
20
217
30
0
11
92
21
217
31
0
0
LINE
8
WIRING
10
92
20
213
30
0
11
92
21
221
31
0
0
LINE
8
WIRING
10
102
20
213
30
0
11
102
21
221
31
0
0
LINE
8
WIRING
10
102
20
217
30
0
11
107
21
217
31
0
0
LINE
8
WIRING
10
90
20
222
30
0
11
104
21
212
31
0
0
TEXT
8
TEXT
10
85
20
231
30
0
40
3
1
-S2
0
TEXT
8
TEXT
10
85
20
202
30
0
40
2.5
1
Stop pushbutton NC
0
LINE
8
WIRING
10
97
20
212
30
0
11
97
21
182
31
0
0
CIRCLE
8
PANEL
10
97
20
182
30
0
40
1.6
0
TEXT
8
TEXT
10
94
20
186
30
0
40
2.5
1
X1:2
0
LINE
8
WIRING
10
97
20
180
30
0
11
97
21
157
31
0
0
TEXT
8
TEXT
10
89
20
145
30
0
40
3
1
I0.1
0
LINE
8
WIRING
10
139
20
257
30
0
11
139
21
227
31
0
0
LINE
8
WIRING
10
129
20
217
30
0
11
134
21
217
31
0
0
LINE
8
WIRING
10
134
20
213
30
0
11
134
21
221
31
0
0
LINE
8
WIRING
10
144
20
213
30
0
11
144
21
221
31
0
0
LINE
8
WIRING
10
144
20
217
30
0
11
149
21
217
31
0
0
TEXT
8
TEXT
10
127
20
231
30
0
40
3
1
-S3
0
TEXT
8
TEXT
10
127
20
202
30
0
40
2.5
1
E-stop healthy /070.2
0
LINE
8
WIRING
10
139
20
212
30
0
11
139
21
182
31
0
0
CIRCLE
8
PANEL
10
139
20
182
30
0
40
1.6
0
TEXT
8
TEXT
10
136
20
186
30
0
40
2.5
1
X1:3
0
LINE
8
WIRING
10
139
20
180
30
0
11
139
21
157
31
0
0
TEXT
8
TEXT
10
131
20
145
30
0
40
3
1
I0.2
0
LINE
8
WIRING
10
181
20
257
30
0
11
181
21
227
31
0
0
LINE
8
WIRING
10
171
20
217
30
0
11
176
21
217
31
0
0
LINE
8
WIRING
10
176
20
213
30
0
11
176
21
221
31
0
0
LINE
8
WIRING
10
186
20
213
30
0
11
186
21
221
31
0
0
LINE
8
WIRING
10
186
20
217
30
0
11
191
21
217
31
0
0
TEXT
8
TEXT
10
169
20
231
30
0
40
3
1
-B1
0
TEXT
8
TEXT
10
169
20
202
30
0
40
2.5
1
Guard closed
0
LINE
8
WIRING
10
181
20
212
30
0
11
181
21
182
31
0
0
CIRCLE
8
PANEL
10
181
20
182
30
0
40
1.6
0
TEXT
8
TEXT
10
178
20
186
30
0
40
2.5
1
X1:4
0
LINE
8
WIRING
10
181
20
180
30
0
11
181
21
157
31
0
0
TEXT
8
TEXT
10
173
20
145
30
0
40
3
1
I0.3
0
LINE
8
WIRING
10
223
20
257
30
0
11
223
21
227
31
0
0
LINE
8
WIRING
10
213
20
217
30
0
11
218
21
217
31
0
0
LINE
8
WIRING
10
218
20
213
30
0
11
218
21
221
31
0
0
LINE
8
WIRING
10
228
20
213
30
0
11
228
21
221
31
0
0
LINE
8
WIRING
10
228
20
217
30
0
11
233
21
217
31
0
0
TEXT
8
TEXT
10
211
20
231
30
0
40
3
1
-B2
0
TEXT
8
TEXT
10
211
20
202
30
0
40
2.5
1
Bottle present
0
LINE
8
WIRING
10
223
20
212
30
0
11
223
21
182
31
0
0
CIRCLE
8
PANEL
10
223
20
182
30
0
40
1.6
0
TEXT
8
TEXT
10
220
20
186
30
0
40
2.5
1
X1:5
0
LINE
8
WIRING
10
223
20
180
30
0
11
223
21
157
31
0
0
TEXT
8
TEXT
10
215
20
145
30
0
40
3
1
I0.4
0
LINE
8
WIRING
10
265
20
257
30
0
11
265
21
227
31
0
0
LINE
8
WIRING
10
255
20
217
30
0
11
260
21
217
31
0
0
LINE
8
WIRING
10
260
20
213
30
0
11
260
21
221
31
0
0
LINE
8
WIRING
10
270
20
213
30
0
11
270
21
221
31
0
0
LINE
8
WIRING
10
270
20
217
30
0
11
275
21
217
31
0
0
TEXT
8
TEXT
10
253
20
231
30
0
40
3
1
-B3
0
TEXT
8
TEXT
10
253
20
202
30
0
40
2.5
1
Low level float
0
LINE
8
WIRING
10
265
20
212
30
0
11
265
21
182
31
0
0
CIRCLE
8
PANEL
10
265
20
182
30
0
40
1.6
0
TEXT
8
TEXT
10
262
20
186
30
0
40
2.5
1
X1:6
0
LINE
8
WIRING
10
265
20
180
30
0
11
265
21
157
31
0
0
TEXT
8
TEXT
10
257
20
145
30
0
40
3
1
I0.5
0
LINE
8
WIRING
10
307
20
257
30
0
11
307
21
227
31
0
0
TEXT
8
TEXT
10
299
20
212
30
0
40
3
1
SPARE
0
LINE
8
WIRING
10
307
20
212
30
0
11
307
21
182
31
0
0
CIRCLE
8
PANEL
10
307
20
182
30
0
40
1.6
0
TEXT
8
TEXT
10
304
20
186
30
0
40
2.5
1
X1:7
0
LINE
8
WIRING
10
307
20
180
30
0
11
307
21
157
31
0
0
TEXT
8
TEXT
10
299
20
145
30
0
40
3
1
I0.6
0
LINE
8
WIRING
10
349
20
257
30
0
11
349
21
227
31
0
0
TEXT
8
TEXT
10
341
20
212
30
0
40
3
1
SPARE
0
LINE
8
WIRING
10
349
20
212
30
0
11
349
21
182
31
0
0
CIRCLE
8
PANEL
10
349
20
182
30
0
40
1.6
0
TEXT
8
TEXT
10
346
20
186
30
0
40
2.5
1
X1:8
0
LINE
8
WIRING
10
349
20
180
30
0
11
349
21
157
31
0
0
TEXT
8
TEXT
10
341
20
145
30
0
40
3
1
I0.7
0
LWPOLYLINE
8
PANEL
90
4
70
1
10
40
20
132
10
390
20
132
10
390
20
157
10
40
20
157
0
TEXT
8
TEXT
10
44
20
135
30
0
40
3.5
1
-A2  DI 8x24VDC   ET 200SP
0
LINE
8
WIRING
10
45
20
132
30
0
11
45
21
90
31
0
0
TEXT
8
TEXT
10
48
20
96
30
0
40
2.8
1
card common
0
ENDSEC
0
EOF
