0
SECTION
2
HEADER
9
$ACADVER
1
AC1009
9
$INSUNITS
70
4
0
ENDSEC
0
SECTION
2
TABLES
0
TABLE
2
LAYER
70
7
0
LAYER
2
0
70
0
62
7
6
CONTINUOUS
0
LAYER
2
PANEL
70
0
62
7
6
CONTINUOUS
0
LAYER
2
WIRING
70
0
62
7
6
CONTINUOUS
0
LAYER
2
TEXT
70
0
62
7
6
CONTINUOUS
0
LAYER
2
DIMENSIONS
70
0
62
7
6
CONTINUOUS
0
LAYER
2
SHEET
70
0
62
7
6
CONTINUOUS
0
LAYER
2
NOTES
70
0
62
7
6
CONTINUOUS
0
ENDTAB
0
ENDSEC
0
SECTION
2
ENTITIES
0
LWPOLYLINE
8
SHEET
90
4
70
1
10
0
20
0
10
420
20
0
10
420
20
297
10
0
20
297
0
LWPOLYLINE
8
SHEET
90
4
70
1
10
20
20
10
10
410
20
10
10
410
20
287
10
20
20
287
0
LWPOLYLINE
8
SHEET
90
4
70
1
10
230
20
10
10
410
20
10
10
410
20
70
10
230
20
70
0
LINE
8
SHEET
10
230
20
22
30
0
11
410
21
22
31
0
0
LINE
8
SHEET
10
230
20
34
30
0
11
410
21
34
31
0
0
LINE
8
SHEET
10
230
20
46
30
0
11
410
21
46
31
0
0
LINE
8
SHEET
10
230
20
58
30
0
11
410
21
58
31
0
0
LINE
8
SHEET
10
290
20
10
30
0
11
290
21
34
31
0
0
LINE
8
SHEET
10
340
20
10
30
0
11
340
21
34
31
0
0
LINE
8
SHEET
10
375
20
10
30
0
11
375
21
34
31
0
0
TEXT
8
SHEET
10
234
20
61
30
0
40
5
1

0
TEXT
8
SHEET
10
234
20
54.5
30
0
40
2
1
PROJECT
0
TEXT
8
SHEET
10
260
20
54
30
0
40
3.2
1
IntegraCAD Open
0
TEXT
8
SHEET
10
234
20
42.5
30
0
40
2
1
TITLE
0
TEXT
8
SHEET
10
260
20
42
30
0
40
3.6
1
PLC digital outputs
0
TEXT
8
SHEET
10
234
20
36.5
30
0
40
2
1
CLIENT
0
TEXT
8
SHEET
10
260
20
36
30
0
40
3.2
1

0
TEXT
8
SHEET
10
233
20
28
30
0
40
2
1
DRAWING No.
0
TEXT
8
SHEET
10
233
20
14
30
0
40
3.2
1
055
0
TEXT
8
SHEET
10
293
20
28
30
0
40
2
1
REV
0
TEXT
8
SHEET
10
293
20
14
30
0
40
3.2
1
0
0
TEXT
8
SHEET
10
343
20
28
30
0
40
2
1
SCALE
0
TEXT
8
SHEET
10
343
20
14
30
0
40
3.2
1
1:1
0
TEXT
8
SHEET
10
378
20
28
30
0
40
2
1
DATE
0
TEXT
8
SHEET
10
378
20
14
30
0
40
3.2
1
2026-10-06
0
TEXT
8
SHEET
10
350
20
36.5
30
0
40
2
1
DRAWN
0
TEXT
8
SHEET
10
370
20
36
30
0
40
3.2
1

0
LINE
8
WIRING
10
30
20
257
30
0
11
400
21
257
31
0
0
LINE
8
WIRING
10
30
20
90
30
0
11
400
21
90
31
0
0
TEXT
8
TEXT
10
30
20
261
30
0
40
3.5
1
+24V DC   /030.1
0
TEXT
8
TEXT
10
30
20
83
30
0
40
3.5
1
0V
0
TEXT
8
TEXT
10
58.83333333333333
20
267
30
0
40
3
1
1
0
LINE
8
NOTES
10
60.83333333333333
20
257
30
0
11
60.83333333333333
21
263
31
0
0
TEXT
8
TEXT
10
120.5
20
267
30
0
40
3
1
2
0
LINE
8
NOTES
10
122.5
20
257
30
0
11
122.5
21
263
31
0
0
TEXT
8
TEXT
10
182.16666666666666
20
267
30
0
40
3
1
3
0
LINE
8
NOTES
10
184.16666666666666
20
257
30
0
11
184.16666666666666
21
263
31
0
0
TEXT
8
TEXT
10
243.83333333333331
20
267
30
0
40
3
1
4
0
LINE
8
NOTES
10
245.83333333333331
20
257
30
0
11
245.83333333333331
21
263
31
0
0
TEXT
8
TEXT
10
305.5
20
267
30
0
40
3
1
5
0
LINE
8
NOTES
10
307.5
20
257
30
0
11
307.5
21
263
31
0
0
TEXT
8
TEXT
10
367.16666666666663
20
267
30
0
40
3
1
6
0
LINE
8
NOTES
10
369.16666666666663
20
257
30
0
11
369.16666666666663
21
263
31
0
0
LWPOLYLINE
8
PANEL
90
4
70
1
10
40
20
222
10
390
20
222
10
390
20
245
10
40
20
245
0
TEXT
8
TEXT
10
44
20
227
30
0
40
3.5
1
-A3  DO 8x24VDC 0.5A   ET 200SP
0
TEXT
8
TEXT
10
57
20
249
30
0
40
3
1
Q0.0
0
LINE
8
WIRING
10
65
20
222
30
0
11
65
21
197
31
0
0
CIRCLE
8
PANEL
10
65
20
197
30
0
40
1.6
0
TEXT
8
TEXT
10
62
20
201
30
0
40
2.5
1
X2:1
0
LINE
8
WIRING
10
53
20
172
30
0
11
58
21
172
31
0
0
ARC
8
WIRING
10
63
20
172
30
0
40
5
50
90
51
270
0
ARC
8
WIRING
10
63
20
172
30
0
40
5
50
270
51
90
0
LINE
8
WIRING
10
68
20
172
30
0
11
73
21
172
31
0
0
LINE
8
WIRING
10
65
20
195
30
0
11
65
21
172
31
0
0
TEXT
8
TEXT
10
51
20
185
30
0
40
3
1
-K1
0
TEXT
8
TEXT
10
51
20
159
30
0
40
2.5
1
Filler drive run
0
LINE
8
WIRING
10
65
20
172
30
0
11
65
21
90
31
0
0
TEXT
8
TEXT
10
112
20
249
30
0
40
3
1
Q0.1
0
LINE
8
WIRING
10
120
20
222
30
0
11
120
21
197
31
0
0
CIRCLE
8
PANEL
10
120
20
197
30
0
40
1.6
0
TEXT
8
TEXT
10
117
20
201
30
0
40
2.5
1
X2:2
0
LINE
8
WIRING
10
108
20
172
30
0
11
113
21
172
31
0
0
ARC
8
WIRING
10
118
20
172
30
0
40
5
50
90
51
270
0
ARC
8
WIRING
10
118
20
172
30
0
40
5
50
270
51
90
0
LINE
8
WIRING
10
123
20
172
30
0
11
128
21
172
31
0
0
LINE
8
WIRING
10
120
20
195
30
0
11
120
21
172
31
0
0
TEXT
8
TEXT
10
106
20
185
30
0
40
3
1
-K2
0
TEXT
8
TEXT
10
106
20
159
30
0
40
2.5
1
Infeed conveyor
0
LINE
8
WIRING
10
120
20
172
30
0
11
120
21
90
31
0
0
TEXT
8
TEXT
10
167
20
249
30
0
40
3
1
Q0.2
0
LINE
8
WIRING
10
175
20
222
30
0
11
175
21
197
31
0
0
CIRCLE
8
PANEL
10
175
20
197
30
0
40
1.6
0
TEXT
8
TEXT
10
172
20
201
30
0
40
2.5
1
X2:3
0
LINE
8
WIRING
10
163
20
172
30
0
11
168
21
172
31
0
0
ARC
8
WIRING
10
173
20
172
30
0
40
5
50
90
51
270
0
ARC
8
WIRING
10
173
20
172
30
0
40
5
50
270
51
90
0
LINE
8
WIRING
10
178
20
172
30
0
11
183
21
172
31
0
0
LINE
8
WIRING
10
175
20
195
30
0
11
175
21
172
31
0
0
TEXT
8
TEXT
10
161
20
185
30
0
40
3
1
-K3
0
TEXT
8
TEXT
10
161
20
159
30
0
40
2.5
1
Reject solenoid
0
LINE
8
WIRING
10
175
20
172
30
0
11
175
21
90
31
0
0
TEXT
8
TEXT
10
222
20
249
30
0
40
3
1
Q0.3
0
LINE
8
WIRING
10
230
20
222
30
0
11
230
21
197
31
0
0
CIRCLE
8
PANEL
10
230
20
197
30
0
40
1.6
0
TEXT
8
TEXT
10
227
20
201
30
0
40
2.5
1
X2:4
0
LINE
8
WIRING
10
218
20
172
30
0
11
223
21
172
31
0
0
CIRCLE
8
WIRING
10
229
20
172
30
0
40
6
0
LINE
8
WIRING
10
224.8
20
167.8
30
0
11
233.2
21
176.2
31
0
0
LINE
8
WIRING
10
224.8
20
176.2
30
0
11
233.2
21
167.8
31
0
0
LINE
8
WIRING
10
235
20
172
30
0
11
240
21
172
31
0
0
LINE
8
WIRING
10
230
20
195
30
0
11
230
21
172
31
0
0
TEXT
8
TEXT
10
216
20
185
30
0
40
3
1
-H1
0
TEXT
8
TEXT
10
216
20
159
30
0
40
2.5
1
Running beacon
0
LINE
8
WIRING
10
230
20
172
30
0
11
230
21
90
31
0
0
TEXT
8
TEXT
10
277
20
249
30
0
40
3
1
Q0.4
0
LINE
8
WIRING
10
285
20
222
30
0
11
285
21
197
31
0
0
CIRCLE
8
PANEL
10
285
20
197
30
0
40
1.6
0
TEXT
8
TEXT
10
282
20
201
30
0
40
2.5
1
X2:5
0
LINE
8
WIRING
10
273
20
172
30
0
11
278
21
172
31
0
0
CIRCLE
8
WIRING
10
284
20
172
30
0
40
6
0
LINE
8
WIRING
10
279.8
20
167.8
30
0
11
288.2
21
176.2
31
0
0
LINE
8
WIRING
10
279.8
20
176.2
30
0
11
288.2
21
167.8
31
0
0
LINE
8
WIRING
10
290
20
172
30
0
11
295
21
172
31
0
0
LINE
8
WIRING
10
285
20
195
30
0
11
285
21
172
31
0
0
TEXT
8
TEXT
10
271
20
185
30
0
40
3
1
-H2
0
TEXT
8
TEXT
10
271
20
159
30
0
40
2.5
1
Fault beacon
0
LINE
8
WIRING
10
285
20
172
30
0
11
285
21
90
31
0
0
TEXT
8
TEXT
10
332
20
249
30
0
40
3
1
Q0.5
0
LINE
8
WIRING
10
340
20
222
30
0
11
340
21
197
31
0
0
CIRCLE
8
PANEL
10
340
20
197
30
0
40
1.6
0
TEXT
8
TEXT
10
337
20
201
30
0
40
2.5
1
X2:6
0
TEXT
8
TEXT
10
332
20
177
30
0
40
3
1
SPARE
0
TEXT
8
NOTES
10
35
20
70
30
0
40
3
1
Every relay coil and solenoid to carry a suppression diode across it.
0
ENDSEC
0
EOF
