0
SECTION
2
HEADER
9
$ACADVER
1
AC1009
9
$INSUNITS
70
4
0
ENDSEC
0
SECTION
2
TABLES
0
TABLE
2
LAYER
70
7
0
LAYER
2
0
70
0
62
7
6
CONTINUOUS
0
LAYER
2
PANEL
70
0
62
7
6
CONTINUOUS
0
LAYER
2
WIRING
70
0
62
7
6
CONTINUOUS
0
LAYER
2
TEXT
70
0
62
7
6
CONTINUOUS
0
LAYER
2
DIMENSIONS
70
0
62
7
6
CONTINUOUS
0
LAYER
2
SHEET
70
0
62
7
6
CONTINUOUS
0
LAYER
2
NOTES
70
0
62
7
6
CONTINUOUS
0
ENDTAB
0
ENDSEC
0
SECTION
2
ENTITIES
0
LWPOLYLINE
8
SHEET
90
4
70
1
10
0
20
0
10
420
20
0
10
420
20
297
10
0
20
297
0
LWPOLYLINE
8
SHEET
90
4
70
1
10
20
20
10
10
410
20
10
10
410
20
287
10
20
20
287
0
LWPOLYLINE
8
SHEET
90
4
70
1
10
230
20
10
10
410
20
10
10
410
20
70
10
230
20
70
0
LINE
8
SHEET
10
230
20
22
30
0
11
410
21
22
31
0
0
LINE
8
SHEET
10
230
20
34
30
0
11
410
21
34
31
0
0
LINE
8
SHEET
10
230
20
46
30
0
11
410
21
46
31
0
0
LINE
8
SHEET
10
230
20
58
30
0
11
410
21
58
31
0
0
LINE
8
SHEET
10
290
20
10
30
0
11
290
21
34
31
0
0
LINE
8
SHEET
10
340
20
10
30
0
11
340
21
34
31
0
0
LINE
8
SHEET
10
375
20
10
30
0
11
375
21
34
31
0
0
TEXT
8
SHEET
10
234
20
61
30
0
40
5
1

0
TEXT
8
SHEET
10
234
20
54.5
30
0
40
2
1
PROJECT
0
TEXT
8
SHEET
10
260
20
54
30
0
40
3.2
1
IntegraCAD Open
0
TEXT
8
SHEET
10
234
20
42.5
30
0
40
2
1
TITLE
0
TEXT
8
SHEET
10
260
20
42
30
0
40
3.6
1
PLC analogue I/O
0
TEXT
8
SHEET
10
234
20
36.5
30
0
40
2
1
CLIENT
0
TEXT
8
SHEET
10
260
20
36
30
0
40
3.2
1

0
TEXT
8
SHEET
10
233
20
28
30
0
40
2
1
DRAWING No.
0
TEXT
8
SHEET
10
233
20
14
30
0
40
3.2
1
060
0
TEXT
8
SHEET
10
293
20
28
30
0
40
2
1
REV
0
TEXT
8
SHEET
10
293
20
14
30
0
40
3.2
1
0
0
TEXT
8
SHEET
10
343
20
28
30
0
40
2
1
SCALE
0
TEXT
8
SHEET
10
343
20
14
30
0
40
3.2
1
1:1
0
TEXT
8
SHEET
10
378
20
28
30
0
40
2
1
DATE
0
TEXT
8
SHEET
10
378
20
14
30
0
40
3.2
1
2026-10-06
0
TEXT
8
SHEET
10
350
20
36.5
30
0
40
2
1
DRAWN
0
TEXT
8
SHEET
10
370
20
36
30
0
40
3.2
1

0
LINE
8
WIRING
10
30
20
257
30
0
11
400
21
257
31
0
0
LINE
8
WIRING
10
30
20
90
30
0
11
400
21
90
31
0
0
TEXT
8
TEXT
10
30
20
261
30
0
40
3.5
1
+24V DC   /030.1
0
TEXT
8
TEXT
10
30
20
83
30
0
40
3.5
1
0V
0
TEXT
8
TEXT
10
74.25
20
267
30
0
40
3
1
1
0
LINE
8
NOTES
10
76.25
20
257
30
0
11
76.25
21
263
31
0
0
TEXT
8
TEXT
10
166.75
20
267
30
0
40
3
1
2
0
LINE
8
NOTES
10
168.75
20
257
30
0
11
168.75
21
263
31
0
0
TEXT
8
TEXT
10
259.25
20
267
30
0
40
3
1
3
0
LINE
8
NOTES
10
261.25
20
257
30
0
11
261.25
21
263
31
0
0
TEXT
8
TEXT
10
351.75
20
267
30
0
40
3
1
4
0
LINE
8
NOTES
10
353.75
20
257
30
0
11
353.75
21
263
31
0
0
LWPOLYLINE
8
PANEL
90
4
70
1
10
40
20
117
10
390
20
117
10
390
20
142
10
40
20
142
0
TEXT
8
TEXT
10
44
20
120
30
0
40
3.5
1
-A4  AI 4x4-20mA   ET 200SP
0
CIRCLE
8
WIRING
10
70
20
212
30
0
40
9
0
TEXT
8
TEXT
10
64
20
210
30
0
40
3
1
-B10
0
TEXT
8
TEXT
10
48
20
195
30
0
40
2.5
1
Tank level, 0 to 100%
0
LINE
8
WIRING
10
66
20
257
30
0
11
66
21
221
31
0
0
LINE
8
WIRING
10
74
20
203
30
0
11
74
21
167
31
0
0
CIRCLE
8
PANEL
10
74
20
167
30
0
40
1.6
0
TEXT
8
TEXT
10
71
20
171
30
0
40
2.5
1
X3:1
0
LINE
8
WIRING
10
74
20
165
30
0
11
74
21
142
31
0
0
TEXT
8
TEXT
10
64
20
149
30
0
40
3
1
IW64
0
CIRCLE
8
WIRING
10
155
20
212
30
0
40
9
0
TEXT
8
TEXT
10
149
20
210
30
0
40
3
1
-B11
0
TEXT
8
TEXT
10
133
20
195
30
0
40
2.5
1
Line pressure, 0 to 10 bar
0
LINE
8
WIRING
10
151
20
257
30
0
11
151
21
221
31
0
0
LINE
8
WIRING
10
159
20
203
30
0
11
159
21
167
31
0
0
CIRCLE
8
PANEL
10
159
20
167
30
0
40
1.6
0
TEXT
8
TEXT
10
156
20
171
30
0
40
2.5
1
X3:3
0
LINE
8
WIRING
10
159
20
165
30
0
11
159
21
142
31
0
0
TEXT
8
TEXT
10
149
20
149
30
0
40
3
1
IW66
0
CIRCLE
8
WIRING
10
240
20
212
30
0
40
9
0
TEXT
8
TEXT
10
234
20
210
30
0
40
3
1
-B12
0
TEXT
8
TEXT
10
218
20
195
30
0
40
2.5
1
Product temperature, 0 to 120 C
0
LINE
8
WIRING
10
236
20
257
30
0
11
236
21
221
31
0
0
LINE
8
WIRING
10
244
20
203
30
0
11
244
21
167
31
0
0
CIRCLE
8
PANEL
10
244
20
167
30
0
40
1.6
0
TEXT
8
TEXT
10
241
20
171
30
0
40
2.5
1
X3:5
0
LINE
8
WIRING
10
244
20
165
30
0
11
244
21
142
31
0
0
TEXT
8
TEXT
10
234
20
149
30
0
40
3
1
IW68
0
TEXT
8
TEXT
10
317
20
197
30
0
40
3
1
SPARE
0
TEXT
8
NOTES
10
35
20
70
30
0
40
3
1
Screens earthed at the panel end only. Do not earth at the field device.
0
ENDSEC
0
EOF
