0
SECTION
2
HEADER
9
$ACADVER
1
AC1009
9
$INSUNITS
70
4
0
ENDSEC
0
SECTION
2
TABLES
0
TABLE
2
LAYER
70
7
0
LAYER
2
0
70
0
62
7
6
CONTINUOUS
0
LAYER
2
PANEL
70
0
62
7
6
CONTINUOUS
0
LAYER
2
WIRING
70
0
62
7
6
CONTINUOUS
0
LAYER
2
TEXT
70
0
62
7
6
CONTINUOUS
0
LAYER
2
DIMENSIONS
70
0
62
7
6
CONTINUOUS
0
LAYER
2
SHEET
70
0
62
7
6
CONTINUOUS
0
LAYER
2
NOTES
70
0
62
7
6
CONTINUOUS
0
ENDTAB
0
ENDSEC
0
SECTION
2
ENTITIES
0
LWPOLYLINE
8
PANEL
90
4
70
1
10
0
20
0
10
1200
20
0
10
1200
20
800
10
0
20
800
0
TEXT
8
TEXT
10
0
20
812
30
0
40
12
1
BACK PLATE  1200 x 800
0
LWPOLYLINE
8
PANEL
90
4
70
1
10
60
20
120
10
560
20
120
10
560
20
155
10
60
20
155
0
LINE
8
PANEL
10
60
20
127.5
30
0
11
560
21
127.5
31
0
0
LINE
8
PANEL
10
60
20
147.5
30
0
11
560
21
147.5
31
0
0
TEXT
8
TEXT
10
62
20
135
30
0
40
4
1
TS35 DIN rail
0
LWPOLYLINE
8
PANEL
90
4
70
1
10
60
20
190
10
460
20
190
10
460
20
250
10
60
20
250
0
LINE
8
PANEL
10
70
20
196
30
0
11
70
21
244
31
0
0
LINE
8
PANEL
10
85
20
196
30
0
11
85
21
244
31
0
0
LINE
8
PANEL
10
100
20
196
30
0
11
100
21
244
31
0
0
LINE
8
PANEL
10
115
20
196
30
0
11
115
21
244
31
0
0
LINE
8
PANEL
10
130
20
196
30
0
11
130
21
244
31
0
0
LINE
8
PANEL
10
145
20
196
30
0
11
145
21
244
31
0
0
LINE
8
PANEL
10
160
20
196
30
0
11
160
21
244
31
0
0
LINE
8
PANEL
10
175
20
196
30
0
11
175
21
244
31
0
0
LINE
8
PANEL
10
190
20
196
30
0
11
190
21
244
31
0
0
LINE
8
PANEL
10
205
20
196
30
0
11
205
21
244
31
0
0
LINE
8
PANEL
10
220
20
196
30
0
11
220
21
244
31
0
0
LINE
8
PANEL
10
235
20
196
30
0
11
235
21
244
31
0
0
LINE
8
PANEL
10
250
20
196
30
0
11
250
21
244
31
0
0
LINE
8
PANEL
10
265
20
196
30
0
11
265
21
244
31
0
0
LINE
8
PANEL
10
280
20
196
30
0
11
280
21
244
31
0
0
LINE
8
PANEL
10
295
20
196
30
0
11
295
21
244
31
0
0
LINE
8
PANEL
10
310
20
196
30
0
11
310
21
244
31
0
0
LINE
8
PANEL
10
325
20
196
30
0
11
325
21
244
31
0
0
LINE
8
PANEL
10
340
20
196
30
0
11
340
21
244
31
0
0
LINE
8
PANEL
10
355
20
196
30
0
11
355
21
244
31
0
0
LINE
8
PANEL
10
370
20
196
30
0
11
370
21
244
31
0
0
LINE
8
PANEL
10
385
20
196
30
0
11
385
21
244
31
0
0
LINE
8
PANEL
10
400
20
196
30
0
11
400
21
244
31
0
0
LINE
8
PANEL
10
415
20
196
30
0
11
415
21
244
31
0
0
LINE
8
PANEL
10
430
20
196
30
0
11
430
21
244
31
0
0
LINE
8
PANEL
10
445
20
196
30
0
11
445
21
244
31
0
0
LWPOLYLINE
8
PANEL
90
4
70
1
10
60
20
340
10
560
20
340
10
560
20
375
10
60
20
375
0
LINE
8
PANEL
10
60
20
347.5
30
0
11
560
21
347.5
31
0
0
LINE
8
PANEL
10
60
20
367.5
30
0
11
560
21
367.5
31
0
0
TEXT
8
TEXT
10
62
20
355
30
0
40
4
1
TS35 DIN rail
0
LWPOLYLINE
8
PANEL
90
4
70
1
10
60
20
410
10
460
20
410
10
460
20
470
10
60
20
470
0
LINE
8
PANEL
10
70
20
416
30
0
11
70
21
464
31
0
0
LINE
8
PANEL
10
85
20
416
30
0
11
85
21
464
31
0
0
LINE
8
PANEL
10
100
20
416
30
0
11
100
21
464
31
0
0
LINE
8
PANEL
10
115
20
416
30
0
11
115
21
464
31
0
0
LINE
8
PANEL
10
130
20
416
30
0
11
130
21
464
31
0
0
LINE
8
PANEL
10
145
20
416
30
0
11
145
21
464
31
0
0
LINE
8
PANEL
10
160
20
416
30
0
11
160
21
464
31
0
0
LINE
8
PANEL
10
175
20
416
30
0
11
175
21
464
31
0
0
LINE
8
PANEL
10
190
20
416
30
0
11
190
21
464
31
0
0
LINE
8
PANEL
10
205
20
416
30
0
11
205
21
464
31
0
0
LINE
8
PANEL
10
220
20
416
30
0
11
220
21
464
31
0
0
LINE
8
PANEL
10
235
20
416
30
0
11
235
21
464
31
0
0
LINE
8
PANEL
10
250
20
416
30
0
11
250
21
464
31
0
0
LINE
8
PANEL
10
265
20
416
30
0
11
265
21
464
31
0
0
LINE
8
PANEL
10
280
20
416
30
0
11
280
21
464
31
0
0
LINE
8
PANEL
10
295
20
416
30
0
11
295
21
464
31
0
0
LINE
8
PANEL
10
310
20
416
30
0
11
310
21
464
31
0
0
LINE
8
PANEL
10
325
20
416
30
0
11
325
21
464
31
0
0
LINE
8
PANEL
10
340
20
416
30
0
11
340
21
464
31
0
0
LINE
8
PANEL
10
355
20
416
30
0
11
355
21
464
31
0
0
LINE
8
PANEL
10
370
20
416
30
0
11
370
21
464
31
0
0
LINE
8
PANEL
10
385
20
416
30
0
11
385
21
464
31
0
0
LINE
8
PANEL
10
400
20
416
30
0
11
400
21
464
31
0
0
LINE
8
PANEL
10
415
20
416
30
0
11
415
21
464
31
0
0
LINE
8
PANEL
10
430
20
416
30
0
11
430
21
464
31
0
0
LINE
8
PANEL
10
445
20
416
30
0
11
445
21
464
31
0
0
LWPOLYLINE
8
PANEL
90
4
70
1
10
60
20
560
10
560
20
560
10
560
20
595
10
60
20
595
0
LINE
8
PANEL
10
60
20
567.5
30
0
11
560
21
567.5
31
0
0
LINE
8
PANEL
10
60
20
587.5
30
0
11
560
21
587.5
31
0
0
TEXT
8
TEXT
10
62
20
575
30
0
40
4
1
TS35 DIN rail
0
LWPOLYLINE
8
PANEL
90
4
70
1
10
60
20
630
10
460
20
630
10
460
20
690
10
60
20
690
0
LINE
8
PANEL
10
70
20
636
30
0
11
70
21
684
31
0
0
LINE
8
PANEL
10
85
20
636
30
0
11
85
21
684
31
0
0
LINE
8
PANEL
10
100
20
636
30
0
11
100
21
684
31
0
0
LINE
8
PANEL
10
115
20
636
30
0
11
115
21
684
31
0
0
LINE
8
PANEL
10
130
20
636
30
0
11
130
21
684
31
0
0
LINE
8
PANEL
10
145
20
636
30
0
11
145
21
684
31
0
0
LINE
8
PANEL
10
160
20
636
30
0
11
160
21
684
31
0
0
LINE
8
PANEL
10
175
20
636
30
0
11
175
21
684
31
0
0
LINE
8
PANEL
10
190
20
636
30
0
11
190
21
684
31
0
0
LINE
8
PANEL
10
205
20
636
30
0
11
205
21
684
31
0
0
LINE
8
PANEL
10
220
20
636
30
0
11
220
21
684
31
0
0
LINE
8
PANEL
10
235
20
636
30
0
11
235
21
684
31
0
0
LINE
8
PANEL
10
250
20
636
30
0
11
250
21
684
31
0
0
LINE
8
PANEL
10
265
20
636
30
0
11
265
21
684
31
0
0
LINE
8
PANEL
10
280
20
636
30
0
11
280
21
684
31
0
0
LINE
8
PANEL
10
295
20
636
30
0
11
295
21
684
31
0
0
LINE
8
PANEL
10
310
20
636
30
0
11
310
21
684
31
0
0
LINE
8
PANEL
10
325
20
636
30
0
11
325
21
684
31
0
0
LINE
8
PANEL
10
340
20
636
30
0
11
340
21
684
31
0
0
LINE
8
PANEL
10
355
20
636
30
0
11
355
21
684
31
0
0
LINE
8
PANEL
10
370
20
636
30
0
11
370
21
684
31
0
0
LINE
8
PANEL
10
385
20
636
30
0
11
385
21
684
31
0
0
LINE
8
PANEL
10
400
20
636
30
0
11
400
21
684
31
0
0
LINE
8
PANEL
10
415
20
636
30
0
11
415
21
684
31
0
0
LINE
8
PANEL
10
430
20
636
30
0
11
430
21
684
31
0
0
LINE
8
PANEL
10
445
20
636
30
0
11
445
21
684
31
0
0
LWPOLYLINE
8
PANEL
90
4
70
1
10
70
20
560
10
87.5
20
560
10
87.5
20
640
10
70
20
640
0
LWPOLYLINE
8
PANEL
90
4
70
1
10
74
20
590
10
83.5
20
590
10
83.5
20
610
10
74
20
610
0
TEXT
8
TEXT
10
72
20
620
30
0
40
4
1
MCB
0
LWPOLYLINE
8
PANEL
90
4
70
1
10
90
20
560
10
107.5
20
560
10
107.5
20
640
10
90
20
640
0
LWPOLYLINE
8
PANEL
90
4
70
1
10
94
20
590
10
103.5
20
590
10
103.5
20
610
10
94
20
610
0
TEXT
8
TEXT
10
92
20
620
30
0
40
4
1
MCB
0
LWPOLYLINE
8
PANEL
90
4
70
1
10
110
20
560
10
127.5
20
560
10
127.5
20
640
10
110
20
640
0
LWPOLYLINE
8
PANEL
90
4
70
1
10
114
20
590
10
123.5
20
590
10
123.5
20
610
10
114
20
610
0
TEXT
8
TEXT
10
112
20
620
30
0
40
4
1
MCB
0
LWPOLYLINE
8
PANEL
90
4
70
1
10
130
20
560
10
147.5
20
560
10
147.5
20
640
10
130
20
640
0
LWPOLYLINE
8
PANEL
90
4
70
1
10
134
20
590
10
143.5
20
590
10
143.5
20
610
10
134
20
610
0
TEXT
8
TEXT
10
132
20
620
30
0
40
4
1
MCB
0
LWPOLYLINE
8
PANEL
90
4
70
1
10
150
20
560
10
167.5
20
560
10
167.5
20
640
10
150
20
640
0
LWPOLYLINE
8
PANEL
90
4
70
1
10
154
20
590
10
163.5
20
590
10
163.5
20
610
10
154
20
610
0
TEXT
8
TEXT
10
152
20
620
30
0
40
4
1
MCB
0
LWPOLYLINE
8
PANEL
90
4
70
1
10
170
20
560
10
187.5
20
560
10
187.5
20
640
10
170
20
640
0
LWPOLYLINE
8
PANEL
90
4
70
1
10
174
20
590
10
183.5
20
590
10
183.5
20
610
10
174
20
610
0
TEXT
8
TEXT
10
172
20
620
30
0
40
4
1
MCB
0
LWPOLYLINE
8
PANEL
90
4
70
1
10
200
20
560
10
245
20
560
10
245
20
640
10
200
20
640
0
LINE
8
PANEL
10
200
20
615
30
0
11
245
21
615
31
0
0
TEXT
8
TEXT
10
203
20
622
30
0
40
5
1
KM
0
LWPOLYLINE
8
PANEL
90
4
70
1
10
250
20
560
10
295
20
560
10
295
20
640
10
250
20
640
0
LINE
8
PANEL
10
250
20
615
30
0
11
295
21
615
31
0
0
TEXT
8
TEXT
10
253
20
622
30
0
40
5
1
KM
0
LWPOLYLINE
8
PANEL
90
4
70
1
10
70
20
200
10
105
20
200
10
105
20
330
10
70
20
330
0
CIRCLE
8
PANEL
10
78
20
208
30
0
40
1.4
0
CIRCLE
8
PANEL
10
97
20
208
30
0
40
1.4
0
CIRCLE
8
PANEL
10
78
20
215.5
30
0
40
1.4
0
CIRCLE
8
PANEL
10
97
20
215.5
30
0
40
1.4
0
CIRCLE
8
PANEL
10
78
20
223
30
0
40
1.4
0
CIRCLE
8
PANEL
10
97
20
223
30
0
40
1.4
0
CIRCLE
8
PANEL
10
78
20
230.5
30
0
40
1.4
0
CIRCLE
8
PANEL
10
97
20
230.5
30
0
40
1.4
0
CIRCLE
8
PANEL
10
78
20
238
30
0
40
1.4
0
CIRCLE
8
PANEL
10
97
20
238
30
0
40
1.4
0
CIRCLE
8
PANEL
10
78
20
245.5
30
0
40
1.4
0
CIRCLE
8
PANEL
10
97
20
245.5
30
0
40
1.4
0
CIRCLE
8
PANEL
10
78
20
253
30
0
40
1.4
0
CIRCLE
8
PANEL
10
97
20
253
30
0
40
1.4
0
CIRCLE
8
PANEL
10
78
20
260.5
30
0
40
1.4
0
CIRCLE
8
PANEL
10
97
20
260.5
30
0
40
1.4
0
CIRCLE
8
PANEL
10
78
20
268
30
0
40
1.4
0
CIRCLE
8
PANEL
10
97
20
268
30
0
40
1.4
0
CIRCLE
8
PANEL
10
78
20
275.5
30
0
40
1.4
0
CIRCLE
8
PANEL
10
97
20
275.5
30
0
40
1.4
0
CIRCLE
8
PANEL
10
78
20
283
30
0
40
1.4
0
CIRCLE
8
PANEL
10
97
20
283
30
0
40
1.4
0
CIRCLE
8
PANEL
10
78
20
290.5
30
0
40
1.4
0
CIRCLE
8
PANEL
10
97
20
290.5
30
0
40
1.4
0
CIRCLE
8
PANEL
10
78
20
298
30
0
40
1.4
0
CIRCLE
8
PANEL
10
97
20
298
30
0
40
1.4
0
CIRCLE
8
PANEL
10
78
20
305.5
30
0
40
1.4
0
CIRCLE
8
PANEL
10
97
20
305.5
30
0
40
1.4
0
CIRCLE
8
PANEL
10
78
20
313
30
0
40
1.4
0
CIRCLE
8
PANEL
10
97
20
313
30
0
40
1.4
0
CIRCLE
8
PANEL
10
78
20
320.5
30
0
40
1.4
0
CIRCLE
8
PANEL
10
97
20
320.5
30
0
40
1.4
0
TEXT
8
TEXT
10
73
20
332
30
0
40
4
1
I/O module
0
LWPOLYLINE
8
PANEL
90
4
70
1
10
110
20
200
10
145
20
200
10
145
20
330
10
110
20
330
0
CIRCLE
8
PANEL
10
118
20
208
30
0
40
1.4
0
CIRCLE
8
PANEL
10
137
20
208
30
0
40
1.4
0
CIRCLE
8
PANEL
10
118
20
215.5
30
0
40
1.4
0
CIRCLE
8
PANEL
10
137
20
215.5
30
0
40
1.4
0
CIRCLE
8
PANEL
10
118
20
223
30
0
40
1.4
0
CIRCLE
8
PANEL
10
137
20
223
30
0
40
1.4
0
CIRCLE
8
PANEL
10
118
20
230.5
30
0
40
1.4
0
CIRCLE
8
PANEL
10
137
20
230.5
30
0
40
1.4
0
CIRCLE
8
PANEL
10
118
20
238
30
0
40
1.4
0
CIRCLE
8
PANEL
10
137
20
238
30
0
40
1.4
0
CIRCLE
8
PANEL
10
118
20
245.5
30
0
40
1.4
0
CIRCLE
8
PANEL
10
137
20
245.5
30
0
40
1.4
0
CIRCLE
8
PANEL
10
118
20
253
30
0
40
1.4
0
CIRCLE
8
PANEL
10
137
20
253
30
0
40
1.4
0
CIRCLE
8
PANEL
10
118
20
260.5
30
0
40
1.4
0
CIRCLE
8
PANEL
10
137
20
260.5
30
0
40
1.4
0
CIRCLE
8
PANEL
10
118
20
268
30
0
40
1.4
0
CIRCLE
8
PANEL
10
137
20
268
30
0
40
1.4
0
CIRCLE
8
PANEL
10
118
20
275.5
30
0
40
1.4
0
CIRCLE
8
PANEL
10
137
20
275.5
30
0
40
1.4
0
CIRCLE
8
PANEL
10
118
20
283
30
0
40
1.4
0
CIRCLE
8
PANEL
10
137
20
283
30
0
40
1.4
0
CIRCLE
8
PANEL
10
118
20
290.5
30
0
40
1.4
0
CIRCLE
8
PANEL
10
137
20
290.5
30
0
40
1.4
0
CIRCLE
8
PANEL
10
118
20
298
30
0
40
1.4
0
CIRCLE
8
PANEL
10
137
20
298
30
0
40
1.4
0
CIRCLE
8
PANEL
10
118
20
305.5
30
0
40
1.4
0
CIRCLE
8
PANEL
10
137
20
305.5
30
0
40
1.4
0
CIRCLE
8
PANEL
10
118
20
313
30
0
40
1.4
0
CIRCLE
8
PANEL
10
137
20
313
30
0
40
1.4
0
CIRCLE
8
PANEL
10
118
20
320.5
30
0
40
1.4
0
CIRCLE
8
PANEL
10
137
20
320.5
30
0
40
1.4
0
TEXT
8
TEXT
10
113
20
332
30
0
40
4
1
I/O module
0
LWPOLYLINE
8
PANEL
90
4
70
1
10
150
20
200
10
185
20
200
10
185
20
330
10
150
20
330
0
CIRCLE
8
PANEL
10
158
20
208
30
0
40
1.4
0
CIRCLE
8
PANEL
10
177
20
208
30
0
40
1.4
0
CIRCLE
8
PANEL
10
158
20
215.5
30
0
40
1.4
0
CIRCLE
8
PANEL
10
177
20
215.5
30
0
40
1.4
0
CIRCLE
8
PANEL
10
158
20
223
30
0
40
1.4
0
CIRCLE
8
PANEL
10
177
20
223
30
0
40
1.4
0
CIRCLE
8
PANEL
10
158
20
230.5
30
0
40
1.4
0
CIRCLE
8
PANEL
10
177
20
230.5
30
0
40
1.4
0
CIRCLE
8
PANEL
10
158
20
238
30
0
40
1.4
0
CIRCLE
8
PANEL
10
177
20
238
30
0
40
1.4
0
CIRCLE
8
PANEL
10
158
20
245.5
30
0
40
1.4
0
CIRCLE
8
PANEL
10
177
20
245.5
30
0
40
1.4
0
CIRCLE
8
PANEL
10
158
20
253
30
0
40
1.4
0
CIRCLE
8
PANEL
10
177
20
253
30
0
40
1.4
0
CIRCLE
8
PANEL
10
158
20
260.5
30
0
40
1.4
0
CIRCLE
8
PANEL
10
177
20
260.5
30
0
40
1.4
0
CIRCLE
8
PANEL
10
158
20
268
30
0
40
1.4
0
CIRCLE
8
PANEL
10
177
20
268
30
0
40
1.4
0
CIRCLE
8
PANEL
10
158
20
275.5
30
0
40
1.4
0
CIRCLE
8
PANEL
10
177
20
275.5
30
0
40
1.4
0
CIRCLE
8
PANEL
10
158
20
283
30
0
40
1.4
0
CIRCLE
8
PANEL
10
177
20
283
30
0
40
1.4
0
CIRCLE
8
PANEL
10
158
20
290.5
30
0
40
1.4
0
CIRCLE
8
PANEL
10
177
20
290.5
30
0
40
1.4
0
CIRCLE
8
PANEL
10
158
20
298
30
0
40
1.4
0
CIRCLE
8
PANEL
10
177
20
298
30
0
40
1.4
0
CIRCLE
8
PANEL
10
158
20
305.5
30
0
40
1.4
0
CIRCLE
8
PANEL
10
177
20
305.5
30
0
40
1.4
0
CIRCLE
8
PANEL
10
158
20
313
30
0
40
1.4
0
CIRCLE
8
PANEL
10
177
20
313
30
0
40
1.4
0
CIRCLE
8
PANEL
10
158
20
320.5
30
0
40
1.4
0
CIRCLE
8
PANEL
10
177
20
320.5
30
0
40
1.4
0
TEXT
8
TEXT
10
153
20
332
30
0
40
4
1
I/O module
0
LWPOLYLINE
8
PANEL
90
4
70
1
10
190
20
200
10
225
20
200
10
225
20
330
10
190
20
330
0
CIRCLE
8
PANEL
10
198
20
208
30
0
40
1.4
0
CIRCLE
8
PANEL
10
217
20
208
30
0
40
1.4
0
CIRCLE
8
PANEL
10
198
20
215.5
30
0
40
1.4
0
CIRCLE
8
PANEL
10
217
20
215.5
30
0
40
1.4
0
CIRCLE
8
PANEL
10
198
20
223
30
0
40
1.4
0
CIRCLE
8
PANEL
10
217
20
223
30
0
40
1.4
0
CIRCLE
8
PANEL
10
198
20
230.5
30
0
40
1.4
0
CIRCLE
8
PANEL
10
217
20
230.5
30
0
40
1.4
0
CIRCLE
8
PANEL
10
198
20
238
30
0
40
1.4
0
CIRCLE
8
PANEL
10
217
20
238
30
0
40
1.4
0
CIRCLE
8
PANEL
10
198
20
245.5
30
0
40
1.4
0
CIRCLE
8
PANEL
10
217
20
245.5
30
0
40
1.4
0
CIRCLE
8
PANEL
10
198
20
253
30
0
40
1.4
0
CIRCLE
8
PANEL
10
217
20
253
30
0
40
1.4
0
CIRCLE
8
PANEL
10
198
20
260.5
30
0
40
1.4
0
CIRCLE
8
PANEL
10
217
20
260.5
30
0
40
1.4
0
CIRCLE
8
PANEL
10
198
20
268
30
0
40
1.4
0
CIRCLE
8
PANEL
10
217
20
268
30
0
40
1.4
0
CIRCLE
8
PANEL
10
198
20
275.5
30
0
40
1.4
0
CIRCLE
8
PANEL
10
217
20
275.5
30
0
40
1.4
0
CIRCLE
8
PANEL
10
198
20
283
30
0
40
1.4
0
CIRCLE
8
PANEL
10
217
20
283
30
0
40
1.4
0
CIRCLE
8
PANEL
10
198
20
290.5
30
0
40
1.4
0
CIRCLE
8
PANEL
10
217
20
290.5
30
0
40
1.4
0
CIRCLE
8
PANEL
10
198
20
298
30
0
40
1.4
0
CIRCLE
8
PANEL
10
217
20
298
30
0
40
1.4
0
CIRCLE
8
PANEL
10
198
20
305.5
30
0
40
1.4
0
CIRCLE
8
PANEL
10
217
20
305.5
30
0
40
1.4
0
CIRCLE
8
PANEL
10
198
20
313
30
0
40
1.4
0
CIRCLE
8
PANEL
10
217
20
313
30
0
40
1.4
0
CIRCLE
8
PANEL
10
198
20
320.5
30
0
40
1.4
0
CIRCLE
8
PANEL
10
217
20
320.5
30
0
40
1.4
0
TEXT
8
TEXT
10
193
20
332
30
0
40
4
1
I/O module
0
LWPOLYLINE
8
PANEL
90
4
70
1
10
70
20
130
10
76
20
130
10
76
20
180
10
70
20
180
0
CIRCLE
8
PANEL
10
73
20
140
30
0
40
1.6
0
CIRCLE
8
PANEL
10
73
20
170
30
0
40
1.6
0
LWPOLYLINE
8
PANEL
90
4
70
1
10
76
20
130
10
82
20
130
10
82
20
180
10
76
20
180
0
CIRCLE
8
PANEL
10
79
20
140
30
0
40
1.6
0
CIRCLE
8
PANEL
10
79
20
170
30
0
40
1.6
0
LWPOLYLINE
8
PANEL
90
4
70
1
10
82
20
130
10
88
20
130
10
88
20
180
10
82
20
180
0
CIRCLE
8
PANEL
10
85
20
140
30
0
40
1.6
0
CIRCLE
8
PANEL
10
85
20
170
30
0
40
1.6
0
LWPOLYLINE
8
PANEL
90
4
70
1
10
88
20
130
10
94
20
130
10
94
20
180
10
88
20
180
0
CIRCLE
8
PANEL
10
91
20
140
30
0
40
1.6
0
CIRCLE
8
PANEL
10
91
20
170
30
0
40
1.6
0
LWPOLYLINE
8
PANEL
90
4
70
1
10
94
20
130
10
100
20
130
10
100
20
180
10
94
20
180
0
CIRCLE
8
PANEL
10
97
20
140
30
0
40
1.6
0
CIRCLE
8
PANEL
10
97
20
170
30
0
40
1.6
0
LWPOLYLINE
8
PANEL
90
4
70
1
10
100
20
130
10
106
20
130
10
106
20
180
10
100
20
180
0
CIRCLE
8
PANEL
10
103
20
140
30
0
40
1.6
0
CIRCLE
8
PANEL
10
103
20
170
30
0
40
1.6
0
LWPOLYLINE
8
PANEL
90
4
70
1
10
106
20
130
10
112
20
130
10
112
20
180
10
106
20
180
0
CIRCLE
8
PANEL
10
109
20
140
30
0
40
1.6
0
CIRCLE
8
PANEL
10
109
20
170
30
0
40
1.6
0
LWPOLYLINE
8
PANEL
90
4
70
1
10
112
20
130
10
118
20
130
10
118
20
180
10
112
20
180
0
CIRCLE
8
PANEL
10
115
20
140
30
0
40
1.6
0
CIRCLE
8
PANEL
10
115
20
170
30
0
40
1.6
0
LWPOLYLINE
8
PANEL
90
4
70
1
10
118
20
130
10
124
20
130
10
124
20
180
10
118
20
180
0
CIRCLE
8
PANEL
10
121
20
140
30
0
40
1.6
0
CIRCLE
8
PANEL
10
121
20
170
30
0
40
1.6
0
LWPOLYLINE
8
PANEL
90
4
70
1
10
124
20
130
10
130
20
130
10
130
20
180
10
124
20
180
0
CIRCLE
8
PANEL
10
127
20
140
30
0
40
1.6
0
CIRCLE
8
PANEL
10
127
20
170
30
0
40
1.6
0
LWPOLYLINE
8
PANEL
90
4
70
1
10
130
20
130
10
136
20
130
10
136
20
180
10
130
20
180
0
CIRCLE
8
PANEL
10
133
20
140
30
0
40
1.6
0
CIRCLE
8
PANEL
10
133
20
170
30
0
40
1.6
0
LWPOLYLINE
8
PANEL
90
4
70
1
10
136
20
130
10
142
20
130
10
142
20
180
10
136
20
180
0
CIRCLE
8
PANEL
10
139
20
140
30
0
40
1.6
0
CIRCLE
8
PANEL
10
139
20
170
30
0
40
1.6
0
LWPOLYLINE
8
PANEL
90
4
70
1
10
142
20
130
10
148
20
130
10
148
20
180
10
142
20
180
0
CIRCLE
8
PANEL
10
145
20
140
30
0
40
1.6
0
CIRCLE
8
PANEL
10
145
20
170
30
0
40
1.6
0
LWPOLYLINE
8
PANEL
90
4
70
1
10
148
20
130
10
154
20
130
10
154
20
180
10
148
20
180
0
CIRCLE
8
PANEL
10
151
20
140
30
0
40
1.6
0
CIRCLE
8
PANEL
10
151
20
170
30
0
40
1.6
0
LWPOLYLINE
8
PANEL
90
4
70
1
10
154
20
130
10
160
20
130
10
160
20
180
10
154
20
180
0
CIRCLE
8
PANEL
10
157
20
140
30
0
40
1.6
0
CIRCLE
8
PANEL
10
157
20
170
30
0
40
1.6
0
LWPOLYLINE
8
PANEL
90
4
70
1
10
160
20
130
10
166
20
130
10
166
20
180
10
160
20
180
0
CIRCLE
8
PANEL
10
163
20
140
30
0
40
1.6
0
CIRCLE
8
PANEL
10
163
20
170
30
0
40
1.6
0
LWPOLYLINE
8
PANEL
90
4
70
1
10
166
20
130
10
172
20
130
10
172
20
180
10
166
20
180
0
CIRCLE
8
PANEL
10
169
20
140
30
0
40
1.6
0
CIRCLE
8
PANEL
10
169
20
170
30
0
40
1.6
0
LWPOLYLINE
8
PANEL
90
4
70
1
10
172
20
130
10
178
20
130
10
178
20
180
10
172
20
180
0
CIRCLE
8
PANEL
10
175
20
140
30
0
40
1.6
0
CIRCLE
8
PANEL
10
175
20
170
30
0
40
1.6
0
LWPOLYLINE
8
PANEL
90
4
70
1
10
178
20
130
10
184
20
130
10
184
20
180
10
178
20
180
0
CIRCLE
8
PANEL
10
181
20
140
30
0
40
1.6
0
CIRCLE
8
PANEL
10
181
20
170
30
0
40
1.6
0
LWPOLYLINE
8
PANEL
90
4
70
1
10
184
20
130
10
190
20
130
10
190
20
180
10
184
20
180
0
CIRCLE
8
PANEL
10
187
20
140
30
0
40
1.6
0
CIRCLE
8
PANEL
10
187
20
170
30
0
40
1.6
0
LWPOLYLINE
8
PANEL
90
4
70
1
10
190
20
130
10
196
20
130
10
196
20
180
10
190
20
180
0
CIRCLE
8
PANEL
10
193
20
140
30
0
40
1.6
0
CIRCLE
8
PANEL
10
193
20
170
30
0
40
1.6
0
LWPOLYLINE
8
PANEL
90
4
70
1
10
196
20
130
10
202
20
130
10
202
20
180
10
196
20
180
0
CIRCLE
8
PANEL
10
199
20
140
30
0
40
1.6
0
CIRCLE
8
PANEL
10
199
20
170
30
0
40
1.6
0
LWPOLYLINE
8
PANEL
90
4
70
1
10
202
20
130
10
208
20
130
10
208
20
180
10
202
20
180
0
CIRCLE
8
PANEL
10
205
20
140
30
0
40
1.6
0
CIRCLE
8
PANEL
10
205
20
170
30
0
40
1.6
0
LWPOLYLINE
8
PANEL
90
4
70
1
10
208
20
130
10
214
20
130
10
214
20
180
10
208
20
180
0
CIRCLE
8
PANEL
10
211
20
140
30
0
40
1.6
0
CIRCLE
8
PANEL
10
211
20
170
30
0
40
1.6
0
LWPOLYLINE
8
PANEL
90
4
70
1
10
214
20
130
10
220
20
130
10
220
20
180
10
214
20
180
0
CIRCLE
8
PANEL
10
217
20
140
30
0
40
1.6
0
CIRCLE
8
PANEL
10
217
20
170
30
0
40
1.6
0
LWPOLYLINE
8
PANEL
90
4
70
1
10
220
20
130
10
226
20
130
10
226
20
180
10
220
20
180
0
CIRCLE
8
PANEL
10
223
20
140
30
0
40
1.6
0
CIRCLE
8
PANEL
10
223
20
170
30
0
40
1.6
0
LWPOLYLINE
8
PANEL
90
4
70
1
10
226
20
130
10
232
20
130
10
232
20
180
10
226
20
180
0
CIRCLE
8
PANEL
10
229
20
140
30
0
40
1.6
0
CIRCLE
8
PANEL
10
229
20
170
30
0
40
1.6
0
LWPOLYLINE
8
PANEL
90
4
70
1
10
232
20
130
10
238
20
130
10
238
20
180
10
232
20
180
0
CIRCLE
8
PANEL
10
235
20
140
30
0
40
1.6
0
CIRCLE
8
PANEL
10
235
20
170
30
0
40
1.6
0
LWPOLYLINE
8
PANEL
90
4
70
1
10
238
20
130
10
244
20
130
10
244
20
180
10
238
20
180
0
CIRCLE
8
PANEL
10
241
20
140
30
0
40
1.6
0
CIRCLE
8
PANEL
10
241
20
170
30
0
40
1.6
0
LWPOLYLINE
8
PANEL
90
4
70
1
10
244
20
130
10
250
20
130
10
250
20
180
10
244
20
180
0
CIRCLE
8
PANEL
10
247
20
140
30
0
40
1.6
0
CIRCLE
8
PANEL
10
247
20
170
30
0
40
1.6
0
LWPOLYLINE
8
PANEL
90
4
70
1
10
250
20
130
10
256
20
130
10
256
20
180
10
250
20
180
0
CIRCLE
8
PANEL
10
253
20
140
30
0
40
1.6
0
CIRCLE
8
PANEL
10
253
20
170
30
0
40
1.6
0
LWPOLYLINE
8
PANEL
90
4
70
1
10
256
20
130
10
262
20
130
10
262
20
180
10
256
20
180
0
CIRCLE
8
PANEL
10
259
20
140
30
0
40
1.6
0
CIRCLE
8
PANEL
10
259
20
170
30
0
40
1.6
0
LWPOLYLINE
8
PANEL
90
4
70
1
10
262
20
130
10
268
20
130
10
268
20
180
10
262
20
180
0
CIRCLE
8
PANEL
10
265
20
140
30
0
40
1.6
0
CIRCLE
8
PANEL
10
265
20
170
30
0
40
1.6
0
LWPOLYLINE
8
PANEL
90
4
70
1
10
268
20
130
10
274
20
130
10
274
20
180
10
268
20
180
0
CIRCLE
8
PANEL
10
271
20
140
30
0
40
1.6
0
CIRCLE
8
PANEL
10
271
20
170
30
0
40
1.6
0
LWPOLYLINE
8
PANEL
90
4
70
1
10
274
20
130
10
280
20
130
10
280
20
180
10
274
20
180
0
CIRCLE
8
PANEL
10
277
20
140
30
0
40
1.6
0
CIRCLE
8
PANEL
10
277
20
170
30
0
40
1.6
0
LWPOLYLINE
8
PANEL
90
4
70
1
10
280
20
130
10
286
20
130
10
286
20
180
10
280
20
180
0
CIRCLE
8
PANEL
10
283
20
140
30
0
40
1.6
0
CIRCLE
8
PANEL
10
283
20
170
30
0
40
1.6
0
LWPOLYLINE
8
PANEL
90
4
70
1
10
286
20
130
10
292
20
130
10
292
20
180
10
286
20
180
0
CIRCLE
8
PANEL
10
289
20
140
30
0
40
1.6
0
CIRCLE
8
PANEL
10
289
20
170
30
0
40
1.6
0
LWPOLYLINE
8
PANEL
90
4
70
1
10
292
20
130
10
298
20
130
10
298
20
180
10
292
20
180
0
CIRCLE
8
PANEL
10
295
20
140
30
0
40
1.6
0
CIRCLE
8
PANEL
10
295
20
170
30
0
40
1.6
0
LWPOLYLINE
8
PANEL
90
4
70
1
10
298
20
130
10
304
20
130
10
304
20
180
10
298
20
180
0
CIRCLE
8
PANEL
10
301
20
140
30
0
40
1.6
0
CIRCLE
8
PANEL
10
301
20
170
30
0
40
1.6
0
LWPOLYLINE
8
PANEL
90
4
70
1
10
304
20
130
10
310
20
130
10
310
20
180
10
304
20
180
0
CIRCLE
8
PANEL
10
307
20
140
30
0
40
1.6
0
CIRCLE
8
PANEL
10
307
20
170
30
0
40
1.6
0
CIRCLE
8
PANEL
10
150
20
-30
30
0
40
10
0
CIRCLE
8
PANEL
10
150
20
-30
30
0
40
6.5
0
CIRCLE
8
PANEL
10
240
20
-30
30
0
40
10
0
CIRCLE
8
PANEL
10
240
20
-30
30
0
40
6.5
0
CIRCLE
8
PANEL
10
330
20
-30
30
0
40
10
0
CIRCLE
8
PANEL
10
330
20
-30
30
0
40
6.5
0
CIRCLE
8
PANEL
10
420
20
-30
30
0
40
10
0
CIRCLE
8
PANEL
10
420
20
-30
30
0
40
6.5
0
CIRCLE
8
PANEL
10
510
20
-30
30
0
40
10
0
CIRCLE
8
PANEL
10
510
20
-30
30
0
40
6.5
0
CIRCLE
8
PANEL
10
600
20
-30
30
0
40
10
0
CIRCLE
8
PANEL
10
600
20
-30
30
0
40
6.5
0
CIRCLE
8
PANEL
10
690
20
-30
30
0
40
10
0
CIRCLE
8
PANEL
10
690
20
-30
30
0
40
6.5
0
CIRCLE
8
PANEL
10
780
20
-30
30
0
40
10
0
CIRCLE
8
PANEL
10
780
20
-30
30
0
40
6.5
0
TEXT
8
NOTES
10
0
20
-60
30
0
40
10
1
Gland plate, 8 x M20
0
TEXT
8
NOTES
10
0
20
840
30
0
40
14
1
IntegraCAD Open    |  300 PANEL GENERAL ARRANGEMENT  |  
0
TEXT
8
NOTES
10
0
20
824
30
0
40
10
1
Drawn 1:1 in millimetres. Scale set at plot.
0
ENDSEC
0
EOF
